# Blender 5.1.2
# www.blender.org
mtllib asteroids_asteroid_05.mtl
o asteroid
v 0.618795 -0.618713 0.603009
v 0.685910 -0.435264 0.715179
v 0.490869 -0.490512 0.836160
v 0.433161 -0.684631 0.691801
v 0.205657 -0.579574 0.953176
v 0.161180 -0.763639 0.733115
v -0.179129 -0.594539 0.979034
v -0.139426 -0.789081 0.745899
v -0.536981 -0.538172 0.869037
v -0.451485 -0.784161 0.757094
v -0.775829 -0.456165 0.740641
v -0.668405 -0.679174 0.650452
v 0.858712 -0.200964 0.880417
v 0.591732 -0.217483 0.999929
v 0.218221 -0.217911 1.139883
v -0.202134 -0.197205 0.996204
v -0.538597 -0.186801 0.908428
v -0.779862 -0.161352 0.789133
v 0.849042 0.138544 0.868018
v 0.624791 0.190792 1.046656
v 0.223510 0.241745 1.142025
v -0.201611 0.201678 0.996992
v -0.519504 0.169496 0.893266
v -0.761076 0.149396 0.778419
v 0.756199 0.438971 0.768414
v 0.536596 0.541713 0.898534
v 0.206867 0.620478 1.059100
v -0.183041 0.563568 0.964975
v -0.485253 0.485253 0.839539
v -0.744019 0.442191 0.740828
v 0.644570 0.624290 0.647701
v 0.434461 0.743039 0.759139
v 0.158365 0.779445 0.817802
v -0.137972 0.727253 0.767041
v -0.394008 0.664322 0.689098
v -0.598981 0.598991 0.642022
v 0.745976 -0.745455 -0.690613
v 0.522474 -0.852428 -0.796469
v 0.592654 -0.592716 -0.928398
v 0.824807 -0.499248 -0.756511
v 0.205975 -0.906094 -0.842663
v 0.243336 -0.680332 -1.022830
v -0.112052 -0.824919 -0.799809
v -0.133541 -0.592133 -0.889296
v -0.361328 -0.746173 -0.717739
v -0.406672 -0.512910 -0.784782
v -0.568129 -0.663600 -0.638424
v -0.637261 -0.444783 -0.679439
v 0.643083 -0.223684 -0.929737
v 0.866282 -0.195063 -0.761629
v 0.288509 -0.288145 -1.103764
v -0.122880 -0.273062 -1.006961
v -0.434121 -0.204839 -0.857899
v -0.685671 -0.189213 -0.750886
v 0.601021 0.141167 -0.896489
v 0.822545 0.111810 -0.729815
v 0.286013 0.136659 -1.049609
v -0.129355 0.129369 -0.985630
v -0.464768 0.142787 -0.868291
v -0.689229 0.112122 -0.747469
v 0.536197 0.448850 -0.817824
v 0.787438 0.392393 -0.710354
v 0.208122 0.444514 -0.872842
v -0.146095 0.473570 -0.873053
v -0.409893 0.409958 -0.770122
v -0.605297 0.364185 -0.650503
v 0.440197 0.627808 -0.638309
v 0.677375 0.586997 -0.616310
v 0.178563 0.648306 -0.675838
v -0.114066 0.702774 -0.733986
v -0.362550 0.603127 -0.659128
v -0.536048 0.536049 -0.569398
v 0.518346 -0.833343 0.486492
v 0.705152 -0.705125 0.410653
v 0.199052 -0.900254 0.513250
v -0.173040 -0.949034 0.518766
v -0.518360 -0.915056 0.511402
v -0.745651 -0.783705 0.444984
v 0.568954 -0.947152 0.204570
v 0.791306 -0.790499 0.156808
v 0.235830 -1.132968 0.192231
v -0.197696 -1.115093 0.170421
v -0.578302 -0.999137 0.158316
v -0.823570 -0.825584 0.140286
v 0.580445 -0.979232 -0.169929
v 0.794123 -0.793301 -0.159457
v 0.207608 -1.047864 -0.220489
v -0.191334 -1.057725 -0.239991
v -0.547471 -0.959120 -0.210384
v -0.800220 -0.842238 -0.185749
v 0.560983 -0.941191 -0.510639
v 0.796972 -0.796224 -0.451061
v 0.210126 -0.968142 -0.568715
v -0.154360 -0.969880 -0.592726
v -0.458789 -0.880435 -0.519937
v -0.691626 -0.777393 -0.473802
v -0.860174 -0.509968 0.495126
v -1.052919 -0.190921 0.606950
v -0.994387 0.217433 0.584472
v -0.894307 0.566059 0.540667
v -0.709511 0.709522 0.446440
v -0.974471 -0.605256 0.190294
v -1.034840 -0.224678 0.196679
v -1.008314 0.198124 0.191958
v -0.894204 0.553376 0.176015
v -0.796466 0.796488 0.160829
v -0.987071 -0.640532 -0.213060
v -0.946722 -0.237366 -0.212154
v -0.903026 0.155540 -0.202959
v -0.827328 0.492183 -0.185747
v -0.741407 0.741413 -0.147765
v -0.813062 -0.571088 -0.552018
v -0.922139 -0.246741 -0.596417
v -0.860226 0.132617 -0.557961
v -0.764202 0.441947 -0.493422
v -0.663366 0.663366 -0.394334
v -0.480842 0.787961 0.497399
v -0.193302 0.862055 0.577013
v 0.158974 0.883655 0.565344
v 0.479143 0.796115 0.516292
v 0.714304 0.682524 0.442993
v -0.544088 0.884186 0.202857
v -0.195786 0.957842 0.258036
v 0.199529 0.953133 0.226122
v 0.539317 0.875988 0.201284
v 0.742372 0.735941 0.172588
v -0.523610 0.890826 -0.164171
v -0.168554 0.947399 -0.144010
v 0.237200 0.970263 -0.174053
v 0.575779 0.880525 -0.159276
v 0.769389 0.744913 -0.121539
v -0.441844 0.765886 -0.465685
v -0.129928 0.864140 -0.501237
v 0.232876 0.829168 -0.503034
v 0.528026 0.753537 -0.445168
v 0.781462 0.698021 -0.419454
v 0.851215 0.477554 0.529763
v 0.980402 0.181515 0.622778
v 1.000608 -0.214024 0.631453
v 0.841336 -0.524402 0.511884
v 0.899072 0.512919 0.200288
v 1.072980 0.189574 0.248621
v 1.068815 -0.224581 0.231447
v 0.954074 -0.570279 0.191973
v 0.965422 0.555482 -0.162120
v 1.163231 0.215648 -0.182096
v 1.022460 -0.202616 -0.164301
v 0.894673 -0.521441 -0.163350
v 0.975431 0.526186 -0.535022
v 1.019790 0.166949 -0.535595
v 0.965803 -0.212785 -0.504213
v 0.862500 -0.525508 -0.475145
vn 0.5062 -0.6147 0.6049
vn 0.5344 -0.6497 0.5405
vn 0.4450 -0.6289 0.6375
vn 0.4041 -0.6548 0.6387
vn 0.2352 -0.6229 0.7461
vn 0.1971 -0.7439 0.6385
vn -0.0326 -0.5520 0.8332
vn 0.0513 -0.8008 0.5967
vn -0.3674 -0.3860 0.8462
vn -0.2927 -0.7216 0.6274
vn -0.7076 -0.3172 0.6315
vn -0.6021 -0.5646 0.5646
vn 0.6733 -0.3766 0.6363
vn 0.4605 -0.3703 0.8067
vn 0.1523 -0.3185 0.9356
vn -0.2068 -0.1344 0.9691
vn -0.3750 -0.0245 0.9267
vn -0.6394 -0.0114 0.7688
vn 0.7250 0.2349 0.6475
vn 0.4288 0.1972 0.8816
vn -0.0131 0.1307 0.9913
vn -0.3078 0.0716 0.9487
vn -0.3627 0.0897 0.9276
vn -0.5128 0.1147 0.8508
vn 0.6846 0.5378 0.4920
vn 0.4945 0.5537 0.6700
vn 0.0355 0.5690 0.8216
vn -0.3537 0.4898 0.7969
vn -0.4032 0.4638 0.7889
vn -0.4465 0.4535 0.7714
vn 0.6062 0.6961 0.3847
vn 0.4663 0.7656 0.4432
vn 0.0429 0.8200 0.5708
vn -0.3160 0.7504 0.5805
vn -0.3725 0.7148 0.5919
vn -0.3401 0.7006 0.6273
vn 0.7438 -0.5096 -0.4325
vn 0.3859 -0.7031 -0.5972
vn 0.4231 -0.2591 -0.8683
vn 0.7927 -0.2759 -0.5436
vn 0.0264 -0.8102 -0.5856
vn -0.0366 -0.3363 -0.9410
vn -0.2633 -0.7108 -0.6523
vn -0.3609 -0.3529 -0.8633
vn -0.4117 -0.5281 -0.7427
vn -0.4304 -0.3088 -0.8481
vn -0.4441 -0.5092 -0.7373
vn -0.4537 -0.3456 -0.8214
vn 0.4802 0.0402 -0.8763
vn 0.7244 -0.1072 -0.6810
vn 0.0277 0.0168 -0.9995
vn -0.3625 -0.0732 -0.9291
vn -0.4283 -0.1432 -0.8922
vn -0.4733 -0.1007 -0.8751
vn 0.5082 0.1845 -0.8413
vn 0.6441 0.0553 -0.7629
vn 0.1232 0.2716 -0.9545
vn -0.2796 0.2322 -0.9316
vn -0.4087 0.1656 -0.8975
vn -0.5434 0.2171 -0.8109
vn 0.4069 0.4582 -0.7903
vn 0.5274 0.4062 -0.7462
vn 0.1122 0.5730 -0.8119
vn -0.2085 0.5054 -0.8373
vn -0.4384 0.4301 -0.7892
vn -0.5394 0.4481 -0.7129
vn 0.2678 0.6788 -0.6838
vn 0.3254 0.7023 -0.6331
vn 0.1357 0.7225 -0.6779
vn -0.1476 0.6984 -0.7003
vn -0.4297 0.5578 -0.7101
vn -0.4850 0.5203 -0.7029
vn 0.4198 -0.7502 0.5108
vn 0.5768 -0.6552 0.4878
vn 0.1842 -0.8167 0.5468
vn 0.0296 -0.8427 0.5376
vn -0.3121 -0.8265 0.4684
vn -0.6767 -0.6141 0.4061
vn 0.4926 -0.8361 0.2412
vn 0.6932 -0.7057 0.1463
vn 0.2106 -0.9487 0.2359
vn -0.0808 -0.9792 0.1861
vn -0.3933 -0.9120 0.1168
vn -0.7316 -0.6740 0.1026
vn 0.4884 -0.8726 -0.0010
vn 0.7660 -0.6389 -0.0713
vn 0.1757 -0.9775 -0.1166
vn -0.1411 -0.9681 -0.2072
vn -0.3923 -0.8933 -0.2195
vn -0.6341 -0.7384 -0.2297
vn 0.3978 -0.8993 -0.1820
vn 0.8166 -0.5611 -0.1351
vn 0.0938 -0.9711 -0.2194
vn -0.1492 -0.9312 -0.3325
vn -0.3745 -0.8024 -0.4646
vn -0.4960 -0.6858 -0.5326
vn -0.8167 -0.4093 0.4067
vn -0.8922 -0.1234 0.4345
vn -0.8792 0.1735 0.4438
vn -0.7250 0.5493 0.4155
vn -0.4361 0.7952 0.4213
vn -0.8765 -0.4424 0.1899
vn -0.9878 -0.1442 0.0586
vn -0.9725 0.1919 -0.1321
vn -0.8875 0.4412 -0.1327
vn -0.6008 0.7990 -0.0274
vn -0.9110 -0.3475 -0.2220
vn -0.9847 0.0266 -0.1725
vn -0.9701 0.1706 -0.1724
vn -0.9274 0.3026 -0.2198
vn -0.7108 0.6389 -0.2941
vn -0.6603 -0.3706 -0.6533
vn -0.7988 0.0311 -0.6008
vn -0.8649 0.2311 -0.4457
vn -0.7983 0.3848 -0.4633
vn -0.6216 0.5604 -0.5473
vn -0.3597 0.7923 0.4928
vn -0.2485 0.8427 0.4776
vn 0.0522 0.9205 0.3873
vn 0.3952 0.8689 0.2983
vn 0.6289 0.7180 0.2982
vn -0.3092 0.9415 0.1338
vn -0.1464 0.9762 0.1599
vn 0.1210 0.9827 0.1402
vn 0.4013 0.9006 0.1673
vn 0.6748 0.7185 0.1684
vn -0.2979 0.9173 -0.2642
vn -0.0995 0.9807 -0.1682
vn 0.1067 0.9831 -0.1490
vn 0.4264 0.8876 -0.1740
vn 0.6797 0.7284 -0.0866
vn -0.3670 0.7330 -0.5726
vn -0.1045 0.8673 -0.4866
vn 0.1447 0.8551 -0.4979
vn 0.3479 0.7620 -0.5462
vn 0.4685 0.7668 -0.4388
vn 0.7952 0.5281 0.2979
vn 0.9135 0.2373 0.3305
vn 0.8916 -0.2998 0.3394
vn 0.6713 -0.6323 0.3867
vn 0.8312 0.5292 0.1703
vn 0.9449 0.2476 0.2140
vn 0.9725 -0.1977 0.1236
vn 0.8473 -0.5297 0.0388
vn 0.8117 0.5819 0.0510
vn 0.9833 0.1806 0.0221
vn 0.9612 -0.2574 -0.0990
vn 0.9067 -0.3963 -0.1441
vn 0.7060 0.5793 -0.4074
vn 0.8689 0.0313 -0.4939
vn 0.8730 -0.2985 -0.3857
vn 0.9276 -0.3230 -0.1877
vt 0.312722 0.301112
vt 0.272254 0.308950
vt 0.273458 0.266066
vt 0.318074 0.260778
vt 0.279802 0.208968
vt 0.331034 0.206523
vt 0.279318 0.142157
vt 0.332864 0.146452
vt 0.273259 0.076569
vt 0.323215 0.088087
vt 0.263055 0.026449
vt 0.310038 0.040945
vt 0.214201 0.329934
vt 0.215690 0.277865
vt 0.212327 0.209469
vt 0.210826 0.133714
vt 0.209490 0.073238
vt 0.206444 0.025000
vt 0.150014 0.330356
vt 0.144625 0.280125
vt 0.136734 0.209981
vt 0.140891 0.132634
vt 0.144867 0.075002
vt 0.147367 0.027153
vt 0.088345 0.318737
vt 0.077064 0.270469
vt 0.073818 0.207056
vt 0.076932 0.138821
vt 0.086003 0.080581
vt 0.091835 0.030017
vt 0.043726 0.306919
vt 0.030597 0.258410
vt 0.025000 0.201313
vt 0.030026 0.139515
vt 0.040203 0.088112
vt 0.052528 0.049340
vt 0.302900 0.695401
vt 0.318509 0.743381
vt 0.265047 0.736818
vt 0.253919 0.683899
vt 0.327877 0.804992
vt 0.277816 0.799530
vt 0.315647 0.866376
vt 0.270247 0.870224
vt 0.305055 0.915284
vt 0.259837 0.922962
vt 0.293724 0.957038
vt 0.251426 0.969793
vt 0.200050 0.725003
vt 0.195770 0.675096
vt 0.210633 0.793200
vt 0.209611 0.865380
vt 0.200202 0.925736
vt 0.198790 0.975000
vt 0.134778 0.731200
vt 0.136987 0.681046
vt 0.138776 0.792238
vt 0.137886 0.865909
vt 0.135071 0.928776
vt 0.138852 0.974981
vt 0.078306 0.740881
vt 0.084816 0.690424
vt 0.077262 0.802189
vt 0.073471 0.867663
vt 0.081767 0.920644
vt 0.084424 0.963607
vt 0.030462 0.749925
vt 0.042666 0.705515
vt 0.025994 0.803317
vt 0.025000 0.864008
vt 0.039819 0.916565
vt 0.047205 0.954835
vt 0.048692 0.381328
vt 0.087076 0.367933
vt 0.079863 0.415872
vt 0.037115 0.422681
vt 0.141913 0.361461
vt 0.138592 0.408226
vt 0.200802 0.359914
vt 0.206450 0.409805
vt 0.260900 0.361724
vt 0.268429 0.412666
vt 0.308700 0.374988
vt 0.316995 0.419301
vt 0.075208 0.471305
vt 0.026209 0.476319
vt 0.138516 0.476251
vt 0.210283 0.477179
vt 0.277914 0.476954
vt 0.331198 0.477107
vt 0.075802 0.538739
vt 0.025000 0.537990
vt 0.142544 0.547602
vt 0.212567 0.548867
vt 0.277308 0.542608
vt 0.327229 0.538010
vt 0.080530 0.599730
vt 0.029606 0.593760
vt 0.143840 0.610125
vt 0.208826 0.612029
vt 0.265911 0.600641
vt 0.312482 0.594402
vt 0.086429 0.654065
vt 0.038834 0.639716
vt 0.145639 0.660317
vt 0.206145 0.656960
vt 0.256570 0.646518
vt 0.299195 0.635752
vt 0.622530 0.373235
vt 0.636254 0.420056
vt 0.588538 0.414420
vt 0.579274 0.360668
vt 0.654425 0.474400
vt 0.599323 0.477959
vt 0.656846 0.537332
vt 0.601406 0.545740
vt 0.644550 0.593862
vt 0.596709 0.606685
vt 0.638739 0.638337
vt 0.591604 0.648911
vt 0.529246 0.407630
vt 0.519974 0.360101
vt 0.531324 0.474521
vt 0.532636 0.548277
vt 0.533117 0.613647
vt 0.533746 0.660216
vt 0.460830 0.407757
vt 0.457201 0.359914
vt 0.459944 0.477582
vt 0.461660 0.547866
vt 0.465958 0.609395
vt 0.473749 0.657010
vt 0.395842 0.418778
vt 0.398584 0.373368
vt 0.394991 0.478169
vt 0.398414 0.545354
vt 0.408792 0.603414
vt 0.423308 0.648844
vt 0.353013 0.432918
vt 0.358109 0.389005
vt 0.345976 0.487209
vt 0.352335 0.547625
vt 0.365805 0.600896
vt 0.377604 0.637302
vt 0.370310 0.932159
vt 0.366265 0.891157
vt 0.409188 0.903718
vt 0.413490 0.948764
vt 0.358882 0.839347
vt 0.400806 0.848450
vt 0.357435 0.781623
vt 0.406579 0.784708
vt 0.369615 0.729588
vt 0.415653 0.723890
vt 0.386686 0.683434
vt 0.427961 0.675458
vt 0.465396 0.915592
vt 0.469292 0.964275
vt 0.459543 0.851598
vt 0.468556 0.781710
vt 0.475723 0.719612
vt 0.481664 0.675095
vt 0.531174 0.915609
vt 0.529309 0.962710
vt 0.531357 0.852000
vt 0.539645 0.780792
vt 0.541236 0.719324
vt 0.539487 0.676995
vt 0.591258 0.909671
vt 0.580603 0.955226
vt 0.597209 0.850206
vt 0.602804 0.784379
vt 0.597988 0.727502
vt 0.595896 0.679783
vt 0.639480 0.906474
vt 0.626088 0.943467
vt 0.648179 0.852482
vt 0.648054 0.792571
vt 0.641174 0.741690
vt 0.638624 0.696636
vt 0.389128 0.050030
vt 0.432460 0.036286
vt 0.426469 0.083041
vt 0.379840 0.090809
vt 0.491889 0.025000
vt 0.485255 0.074368
vt 0.554902 0.025129
vt 0.554156 0.075836
vt 0.614004 0.042435
vt 0.616552 0.091654
vt 0.650787 0.061196
vt 0.659628 0.103469
vt 0.416329 0.141997
vt 0.366790 0.141601
vt 0.482475 0.140331
vt 0.554734 0.146314
vt 0.617757 0.153210
vt 0.666179 0.158315
vt 0.410810 0.207480
vt 0.362422 0.198558
vt 0.476482 0.213259
vt 0.550482 0.215777
vt 0.610648 0.218204
vt 0.662933 0.219019
vt 0.419160 0.270821
vt 0.372017 0.258350
vt 0.480541 0.277239
vt 0.548716 0.277578
vt 0.608003 0.275109
vt 0.658941 0.273209
vt 0.427243 0.319855
vt 0.381399 0.306140
vt 0.484835 0.326951
vt 0.544405 0.327142
vt 0.600975 0.326756
vt 0.648909 0.318173
s 1
usemtl wire_115115115.003
f 1/1/1 2/2/2 3/3/3 4/4/4
f 4/4/4 3/3/3 5/5/5 6/6/6
f 6/6/6 5/5/5 7/7/7 8/8/8
f 8/8/8 7/7/7 9/9/9 10/10/10
f 10/10/10 9/9/9 11/11/11 12/12/12
f 2/2/2 13/13/13 14/14/14 3/3/3
f 3/3/3 14/14/14 15/15/15 5/5/5
f 5/5/5 15/15/15 16/16/16 7/7/7
f 7/7/7 16/16/16 17/17/17 9/9/9
f 9/9/9 17/17/17 18/18/18 11/11/11
f 13/13/13 19/19/19 20/20/20 14/14/14
f 14/14/14 20/20/20 21/21/21 15/15/15
f 15/15/15 21/21/21 22/22/22 16/16/16
f 16/16/16 22/22/22 23/23/23 17/17/17
f 17/17/17 23/23/23 24/24/24 18/18/18
f 19/19/19 25/25/25 26/26/26 20/20/20
f 20/20/20 26/26/26 27/27/27 21/21/21
f 21/21/21 27/27/27 28/28/28 22/22/22
f 22/22/22 28/28/28 29/29/29 23/23/23
f 23/23/23 29/29/29 30/30/30 24/24/24
f 25/25/25 31/31/31 32/32/32 26/26/26
f 26/26/26 32/32/32 33/33/33 27/27/27
f 27/27/27 33/33/33 34/34/34 28/28/28
f 28/28/28 34/34/34 35/35/35 29/29/29
f 29/29/29 35/35/35 36/36/36 30/30/30
f 37/37/37 38/38/38 39/39/39 40/40/40
f 38/38/38 41/41/41 42/42/42 39/39/39
f 41/41/41 43/43/43 44/44/44 42/42/42
f 43/43/43 45/45/45 46/46/46 44/44/44
f 45/45/45 47/47/47 48/48/48 46/46/46
f 40/40/40 39/39/39 49/49/49 50/50/50
f 39/39/39 42/42/42 51/51/51 49/49/49
f 42/42/42 44/44/44 52/52/52 51/51/51
f 44/44/44 46/46/46 53/53/53 52/52/52
f 46/46/46 48/48/48 54/54/54 53/53/53
f 50/50/50 49/49/49 55/55/55 56/56/56
f 49/49/49 51/51/51 57/57/57 55/55/55
f 51/51/51 52/52/52 58/58/58 57/57/57
f 52/52/52 53/53/53 59/59/59 58/58/58
f 53/53/53 54/54/54 60/60/60 59/59/59
f 56/56/56 55/55/55 61/61/61 62/62/62
f 55/55/55 57/57/57 63/63/63 61/61/61
f 57/57/57 58/58/58 64/64/64 63/63/63
f 58/58/58 59/59/59 65/65/65 64/64/64
f 59/59/59 60/60/60 66/66/66 65/65/65
f 62/62/62 61/61/61 67/67/67 68/68/68
f 61/61/61 63/63/63 69/69/69 67/67/67
f 63/63/63 64/64/64 70/70/70 69/69/69
f 64/64/64 65/65/65 71/71/71 70/70/70
f 65/65/65 66/66/66 72/72/72 71/71/71
f 1/73/1 4/74/4 73/75/73 74/76/74
f 4/74/4 6/77/6 75/78/75 73/75/73
f 6/77/6 8/79/8 76/80/76 75/78/75
f 8/79/8 10/81/10 77/82/77 76/80/76
f 10/81/10 12/83/12 78/84/78 77/82/77
f 74/76/74 73/75/73 79/85/79 80/86/80
f 73/75/73 75/78/75 81/87/81 79/85/79
f 75/78/75 76/80/76 82/88/82 81/87/81
f 76/80/76 77/82/77 83/89/83 82/88/82
f 77/82/77 78/84/78 84/90/84 83/89/83
f 80/86/80 79/85/79 85/91/85 86/92/86
f 79/85/79 81/87/81 87/93/87 85/91/85
f 81/87/81 82/88/82 88/94/88 87/93/87
f 82/88/82 83/89/83 89/95/89 88/94/88
f 83/89/83 84/90/84 90/96/90 89/95/89
f 86/92/86 85/91/85 91/97/91 92/98/92
f 85/91/85 87/93/87 93/99/93 91/97/91
f 87/93/87 88/94/88 94/100/94 93/99/93
f 88/94/88 89/95/89 95/101/95 94/100/94
f 89/95/89 90/96/90 96/102/96 95/101/95
f 92/98/92 91/97/91 38/103/38 37/104/37
f 91/97/91 93/99/93 41/105/41 38/103/38
f 93/99/93 94/100/94 43/106/43 41/105/41
f 94/100/94 95/101/95 45/107/45 43/106/43
f 95/101/95 96/102/96 47/108/47 45/107/45
f 12/109/12 11/110/11 97/111/97 78/112/78
f 11/110/11 18/113/18 98/114/98 97/111/97
f 18/113/18 24/115/24 99/116/99 98/114/98
f 24/115/24 30/117/30 100/118/100 99/116/99
f 30/117/30 36/119/36 101/120/101 100/118/100
f 78/112/78 97/111/97 102/121/102 84/122/84
f 97/111/97 98/114/98 103/123/103 102/121/102
f 98/114/98 99/116/99 104/124/104 103/123/103
f 99/116/99 100/118/100 105/125/105 104/124/104
f 100/118/100 101/120/101 106/126/106 105/125/105
f 84/122/84 102/121/102 107/127/107 90/128/90
f 102/121/102 103/123/103 108/129/108 107/127/107
f 103/123/103 104/124/104 109/130/109 108/129/108
f 104/124/104 105/125/105 110/131/110 109/130/109
f 105/125/105 106/126/106 111/132/111 110/131/110
f 90/128/90 107/127/107 112/133/112 96/134/96
f 107/127/107 108/129/108 113/135/113 112/133/112
f 108/129/108 109/130/109 114/136/114 113/135/113
f 109/130/109 110/131/110 115/137/115 114/136/114
f 110/131/110 111/132/111 116/138/116 115/137/115
f 96/134/96 112/133/112 48/139/48 47/140/47
f 112/133/112 113/135/113 54/141/54 48/139/48
f 113/135/113 114/136/114 60/142/60 54/141/54
f 114/136/114 115/137/115 66/143/66 60/142/60
f 115/137/115 116/138/116 72/144/72 66/143/66
f 36/145/36 35/146/35 117/147/117 101/148/101
f 35/146/35 34/149/34 118/150/118 117/147/117
f 34/149/34 33/151/33 119/152/119 118/150/118
f 33/151/33 32/153/32 120/154/120 119/152/119
f 32/153/32 31/155/31 121/156/121 120/154/120
f 101/148/101 117/147/117 122/157/122 106/158/106
f 117/147/117 118/150/118 123/159/123 122/157/122
f 118/150/118 119/152/119 124/160/124 123/159/123
f 119/152/119 120/154/120 125/161/125 124/160/124
f 120/154/120 121/156/121 126/162/126 125/161/125
f 106/158/106 122/157/122 127/163/127 111/164/111
f 122/157/122 123/159/123 128/165/128 127/163/127
f 123/159/123 124/160/124 129/166/129 128/165/128
f 124/160/124 125/161/125 130/167/130 129/166/129
f 125/161/125 126/162/126 131/168/131 130/167/130
f 111/164/111 127/163/127 132/169/132 116/170/116
f 127/163/127 128/165/128 133/171/133 132/169/132
f 128/165/128 129/166/129 134/172/134 133/171/133
f 129/166/129 130/167/130 135/173/135 134/172/134
f 130/167/130 131/168/131 136/174/136 135/173/135
f 116/170/116 132/169/132 71/175/71 72/176/72
f 132/169/132 133/171/133 70/177/70 71/175/71
f 133/171/133 134/172/134 69/178/69 70/177/70
f 134/172/134 135/173/135 67/179/67 69/178/69
f 135/173/135 136/174/136 68/180/68 67/179/67
f 31/181/31 25/182/25 137/183/137 121/184/121
f 25/182/25 19/185/19 138/186/138 137/183/137
f 19/185/19 13/187/13 139/188/139 138/186/138
f 13/187/13 2/189/2 140/190/140 139/188/139
f 2/189/2 1/191/1 74/192/74 140/190/140
f 121/184/121 137/183/137 141/193/141 126/194/126
f 137/183/137 138/186/138 142/195/142 141/193/141
f 138/186/138 139/188/139 143/196/143 142/195/142
f 139/188/139 140/190/140 144/197/144 143/196/143
f 140/190/140 74/192/74 80/198/80 144/197/144
f 126/194/126 141/193/141 145/199/145 131/200/131
f 141/193/141 142/195/142 146/201/146 145/199/145
f 142/195/142 143/196/143 147/202/147 146/201/146
f 143/196/143 144/197/144 148/203/148 147/202/147
f 144/197/144 80/198/80 86/204/86 148/203/148
f 131/200/131 145/199/145 149/205/149 136/206/136
f 145/199/145 146/201/146 150/207/150 149/205/149
f 146/201/146 147/202/147 151/208/151 150/207/150
f 147/202/147 148/203/148 152/209/152 151/208/151
f 148/203/148 86/204/86 92/210/92 152/209/152
f 136/206/136 149/205/149 62/211/62 68/212/68
f 149/205/149 150/207/150 56/213/56 62/211/62
f 150/207/150 151/208/151 50/214/50 56/213/56
f 151/208/151 152/209/152 40/215/40 50/214/50
f 152/209/152 92/210/92 37/216/37 40/215/40
