# Blender 5.1.2
# www.blender.org
mtllib asteroid.mtl
o Cube
v 1.707585 -0.993548 -1.262324
v 1.340140 0.477741 -0.980522
v 1.614238 -1.182906 0.731033
v 1.440257 0.633437 0.709272
v -1.141684 -1.078507 -1.274408
v -1.076024 0.477741 -0.953412
v -0.915601 -0.944910 0.468837
v -1.075461 0.615144 0.692622
v 1.731536 -1.137566 -0.376085
v 1.658581 -0.225371 -1.252492
v 1.634838 0.799985 -0.190543
v 1.941110 -0.233584 1.206569
v 0.328082 -1.104787 0.631889
v 0.352383 0.877583 0.966427
v -1.514930 -0.233584 1.168410
v -1.134456 -1.123444 -0.339467
v -1.444531 0.914317 -0.169727
v -1.242144 -0.233584 -1.208824
v 0.653667 -0.875356 -1.327070
v 0.203976 0.637619 -1.113018
v 0.429753 0.998466 -0.165107
v 0.614845 -1.415924 -0.388144
v 0.545165 -0.189922 -1.926893
v -1.941183 -0.233584 -0.243897
v 0.546568 -0.233584 1.440280
v 2.086094 -0.233584 -0.292806
vn 0.5581 -0.5920 -0.5814
vn 0.4572 0.7032 -0.5446
vn 0.4532 -0.7768 0.4372
vn 0.5021 0.7350 0.4558
vn -0.4112 -0.6792 -0.6079
vn -0.4192 0.6453 -0.6386
vn -0.3445 -0.8342 0.4306
vn -0.4269 0.7159 0.5524
vn 0.6382 -0.7606 -0.1193
vn 0.7086 0.1438 -0.6908
vn 0.5987 0.7917 -0.1217
vn 0.7049 -0.0244 0.7089
vn -0.0601 -0.8595 0.5075
vn 0.0186 0.7959 0.6051
vn -0.6315 -0.1395 0.7627
vn -0.5015 -0.8638 -0.0491
vn -0.5790 0.8092 -0.0997
vn -0.6345 0.0184 -0.7727
vn 0.0561 -0.6976 -0.7143
vn -0.0088 0.7781 -0.6281
vn 0.0524 0.9924 -0.1114
vn 0.0013 -0.9974 -0.0715
vn 0.0566 0.1514 -0.9869
vn -0.9945 -0.0827 -0.0645
vn -0.0000 -0.0901 0.9959
vn 0.9892 0.0982 -0.1088
vt 0.300708 0.732694
vt 0.475410 0.732694
vt 0.475410 0.509062
vt 0.300708 0.509062
vt 0.673408 0.298201
vt 0.673408 0.509062
vt 0.947878 0.509062
vt 0.947878 0.298201
vt 1.122581 0.732694
vt 0.947878 0.732694
vt 0.947878 0.930692
vt 1.122581 0.930692
vt 0.673408 1.141553
vt 0.673408 0.930692
vt 0.475410 0.930692
vt 0.475410 1.141553
vt -0.064000 0.732694
vt -0.338470 0.732694
vt -0.338470 0.930692
vt -0.064000 0.930692
vt 0.673408 0.732694
vt 0.133998 0.732694
vt 0.133998 0.930692
vt 0.475410 0.096988
vt 0.673408 0.096988
vt 0.673408 -0.126644
vt 0.475410 -0.126644
vt 0.947878 0.096988
vt 0.947878 -0.126644
vt 0.673408 1.342766
vt 0.475410 1.342766
vt 0.947878 1.342766
vt 0.947878 1.141553
vt 1.289291 0.732694
vt 1.289291 0.930692
vt 1.289291 0.509062
vt 1.122581 0.509062
vt 0.475410 0.298201
vt 0.133998 0.509062
vt 0.300708 0.930692
s 1
f 26/1/26 11/2/11 4/3/4 12/4/12
f 25/5/25 14/6/14 8/7/8 15/8/15
f 24/9/24 17/10/17 6/11/6 18/12/18
f 23/13/23 20/14/20 2/15/2 10/16/10
f 22/17/22 16/18/16 5/19/5 19/20/19
f 21/21/21 11/2/11 2/15/2 20/14/20
f 17/10/17 21/21/21 20/14/20 6/11/6
f 8/7/8 14/6/14 21/21/21 17/10/17
f 14/6/14 4/3/4 11/2/11 21/21/21
f 9/22/9 22/17/22 19/20/19 1/23/1
f 3/24/3 13/25/13 22/26/22 9/27/9
f 13/25/13 7/28/7 16/29/16 22/26/22
f 19/30/19 23/13/23 10/16/10 1/31/1
f 5/32/5 18/33/18 23/13/23 19/30/19
f 18/33/18 6/11/6 20/14/20 23/13/23
f 16/34/16 24/9/24 18/12/18 5/35/5
f 7/36/7 15/37/15 24/9/24 16/34/16
f 15/37/15 8/7/8 17/10/17 24/9/24
f 13/25/13 25/5/25 15/8/15 7/28/7
f 3/24/3 12/38/12 25/5/25 13/25/13
f 12/38/12 4/3/4 14/6/14 25/5/25
f 9/22/9 26/1/26 12/4/12 3/39/3
f 1/23/1 10/40/10 26/1/26 9/22/9
f 10/40/10 2/15/2 11/2/11 26/1/26
