# Blender 5.1.2
# www.blender.org
mtllib asteroids_asteroid_01.mtl
o asteroid
v 1.505979 0.225411 -0.319407
v 1.356047 0.558172 0.347435
v 1.312281 -0.141505 -0.285248
v 1.286467 -0.140486 0.248224
v 1.267220 0.198503 0.247784
v 1.166396 0.482434 -0.218346
v 1.135787 -0.124121 -0.718711
v 1.110036 0.176992 -0.696482
v 1.102685 0.217758 0.686798
v 1.087390 -0.424253 0.232353
v 1.051150 0.708798 -0.189137
v 1.046370 -0.083050 0.656039
v 1.044108 0.722698 0.234123
v 1.002090 0.456764 0.623351
v 0.983687 -0.100593 -1.062865
v 0.965617 -0.376935 -0.625028
v 0.945458 -0.382169 -0.213470
v 0.935832 0.403772 -0.563207
v 0.885161 0.180197 0.938569
v 0.880564 0.653631 0.583428
v 0.878564 -0.321311 0.551950
v 0.867626 0.625321 -0.514508
v 0.846133 0.956601 -0.276759
v 0.843681 0.148498 -0.900311
v 0.842636 -0.573132 0.191983
v 0.831984 -0.327571 -0.946656
v 0.830090 -0.566669 -0.180112
v 0.826956 0.390168 0.882256
v 0.815930 -0.561280 -0.541158
v 0.800598 -0.057118 0.852080
v 0.777696 0.574538 0.828342
v 0.763455 0.325513 -0.750407
v 0.732058 -0.261656 0.783571
v 0.730059 0.843053 0.265355
v 0.704509 0.495366 -0.693310
v 0.702030 0.798149 -0.688723
v 0.700545 -0.146355 -1.296298
v 0.676879 -0.466398 -0.775026
v 0.667103 -0.786930 -0.264690
v 0.650884 -0.448844 0.437009
v 0.649956 0.193320 -1.146639
v 0.642960 0.483362 1.166537
v 0.622508 0.444199 -1.011452
v 0.597350 -0.385928 0.648318
v 0.593754 0.179220 1.089517
v 0.569923 0.685249 1.012919
v 0.568477 -0.671855 -0.652139
v 0.551420 0.691180 0.601648
v 0.550310 -0.384063 -1.095433
v 0.518938 0.612177 -0.898586
v 0.510288 -0.604553 0.182742
v 0.507259 -0.089678 0.960913
v 0.464080 -0.296553 0.859257
v 0.451299 -0.565605 -0.937887
v 0.413418 -0.462545 0.740667
v 0.400891 -0.486235 0.453240
v 0.311767 1.066211 0.363719
v 0.301238 0.611111 1.407283
v 0.283174 1.019957 -0.250211
v 0.265359 0.995135 -0.868433
v 0.262537 0.204559 -1.539171
v 0.226204 0.539096 -1.319183
v 0.206609 0.845596 0.755394
v 0.203950 0.252877 1.371825
v 0.189296 -0.079821 1.235239
v 0.182556 0.762721 1.094042
v 0.181345 0.766254 -1.127382
v 0.176200 -0.162019 -1.296140
v 0.172724 -0.793417 0.224450
v 0.166806 -0.366358 1.087733
v 0.160207 -0.820506 -0.304525
v 0.149120 -0.620623 0.600676
v 0.147975 -0.726407 -0.737036
v 0.134753 -0.460677 -1.236797
v 0.130566 -0.494586 0.845713
v 0.093708 -0.618944 -1.018082
v -0.229607 0.746323 1.043648
v -0.233280 -0.510149 0.900522
v -0.248821 0.851003 -0.197576
v -0.251678 0.531502 1.147290
v -0.258893 0.857566 0.295678
v -0.267255 0.849761 0.764945
v -0.275368 -0.591344 -0.946724
v -0.285158 0.859348 -0.725792
v -0.290275 -0.349338 1.120725
v -0.292474 -0.672221 -0.694100
v -0.309954 0.812645 -1.225926
v -0.310185 -0.742678 0.707900
v -0.321281 0.176693 -1.344687
v -0.343868 0.274344 1.456431
v -0.362862 -0.522233 -1.340055
v -0.367392 0.586005 -1.492737
v -0.376485 -0.192802 -1.463954
v -0.384546 -0.103864 1.539171
v -0.386476 -0.849343 -0.335136
v -0.451949 -1.066211 0.277023
v -0.552877 0.657055 0.896062
v -0.554381 -0.478739 -0.810753
v -0.585541 0.436599 0.938401
v -0.605384 0.644535 -0.936499
v -0.609105 0.696305 -0.180895
v -0.623039 0.698719 0.592837
v -0.634106 -0.553621 -0.583693
v -0.636835 0.722160 0.231955
v -0.656205 -0.095004 -0.956615
v -0.669896 0.732173 -0.619484
v -0.670666 -0.580192 1.004840
v -0.670814 -0.339560 -0.963881
v -0.687576 0.227003 1.066837
v -0.704012 0.167338 -1.099460
v -0.710606 0.470294 -1.124123
v -0.735467 0.488535 -0.685052
v -0.748908 -0.404003 -0.698432
v -0.763365 -0.693553 0.686979
v -0.773175 -0.685221 -0.249522
v -0.777081 0.565075 0.767487
v -0.799916 -0.078702 1.211908
v -0.813429 -0.405662 1.213161
v -0.815642 0.388517 0.818625
v -0.822417 -0.721139 0.209353
v -0.826219 0.584570 0.202257
v -0.826411 0.594756 0.510489
v -0.838526 -0.431513 -0.483058
v -0.848145 0.149584 -0.797668
v -0.860839 -0.259560 -0.810346
v -0.871357 0.598999 -0.466204
v -0.874015 0.382801 -0.823588
v -0.919225 -0.057989 -0.868536
v -0.934174 0.414173 -0.505916
v -0.962179 -0.478261 0.470697
v -0.970532 -0.522463 0.876979
v -0.978021 0.684240 -0.183780
v -0.979896 -0.300627 -0.594877
v -1.013123 0.198662 0.968958
v -1.019182 0.460063 0.639951
v -1.019629 -0.543466 -0.231609
v -1.040702 -0.552122 0.142511
v -1.046646 0.464327 -0.168522
v -1.068596 0.190480 -0.606577
v -1.084979 -0.079217 -0.642768
v -1.105065 -0.058985 1.018048
v -1.117998 0.497397 0.248250
v -1.120906 -0.337274 1.021045
v -1.197201 0.210851 0.705700
v -1.208397 0.219427 0.249244
v -1.218776 -0.390835 0.652169
v -1.230663 -0.382330 -0.267038
v -1.260489 -0.094905 -0.266644
v -1.280057 0.232217 -0.234216
v -1.292360 -0.407125 0.195433
v -1.359547 -0.090142 0.755072
v -1.505979 -0.131757 0.253694
vn 0.3755 0.8661 0.3300
vn 0.5260 0.7795 0.3402
vn 0.5994 0.6722 0.4346
vn 0.3746 0.7943 0.4782
vn 0.1508 0.9563 0.2506
vn 0.1459 0.9086 0.3914
vn -0.2288 0.9562 0.1825
vn -0.3441 0.7776 0.5262
vn -0.4774 0.8649 0.1549
vn -0.5347 0.6421 0.5493
vn -0.5635 0.8011 0.2016
vn -0.6811 0.4751 0.5571
vn 0.3322 0.8920 0.3066
vn 0.5810 0.8056 0.1157
vn 0.0906 0.9634 0.2522
vn -0.2978 0.9533 0.0494
vn -0.3955 0.9156 0.0732
vn -0.4612 0.8735 0.1561
vn 0.4901 0.8674 -0.0859
vn 0.8172 0.4504 -0.3595
vn -0.0300 0.9995 0.0076
vn -0.3399 0.9403 0.0172
vn -0.2808 0.9592 -0.0342
vn -0.5467 0.8361 -0.0447
vn 0.6885 0.3937 -0.6090
vn 0.7125 0.2395 -0.6596
vn 0.1576 0.9175 -0.3652
vn -0.3405 0.9377 -0.0687
vn -0.5843 0.7940 -0.1679
vn -0.6900 0.5990 -0.4063
vn 0.7030 0.3785 -0.6021
vn 0.7511 0.3876 -0.5344
vn 0.4175 0.5931 -0.6885
vn -0.3191 0.8574 -0.4037
vn -0.6744 0.7171 -0.1758
vn -0.7477 0.5702 -0.3402
vn 0.3944 -0.8681 0.3015
vn 0.2133 -0.8758 0.4330
vn 0.3687 -0.8485 0.3796
vn 0.4432 -0.8142 0.3751
vn 0.4084 -0.8310 0.3777
vn 0.1883 -0.8254 0.5322
vn -0.0039 -0.8161 0.5779
vn 0.1443 -0.7548 0.6399
vn -0.4479 -0.8108 0.3767
vn -0.2502 -0.8689 0.4270
vn -0.5302 -0.8338 0.1538
vn -0.4110 -0.8970 0.1629
vn 0.2232 -0.8929 0.3911
vn 0.3680 -0.8661 0.3382
vn 0.4181 -0.8880 0.1914
vn -0.1287 -0.9789 0.1586
vn -0.5515 -0.8297 0.0864
vn -0.6208 -0.7792 0.0864
vn 0.3844 -0.9228 -0.0260
vn 0.7260 -0.6740 -0.1364
vn 0.1031 -0.9924 -0.0665
vn -0.1431 -0.9249 -0.3522
vn -0.5245 -0.7658 -0.3721
vn -0.4986 -0.8008 -0.3320
vn 0.4152 -0.8408 -0.3474
vn 0.6565 -0.6944 -0.2945
vn 0.0072 -0.9543 -0.2989
vn -0.2620 -0.8926 -0.3668
vn -0.5049 -0.7399 -0.4444
vn -0.5007 -0.7315 -0.4629
vn 0.4458 -0.7444 -0.4972
vn 0.5335 -0.7304 -0.4266
vn 0.1178 -0.8588 -0.4986
vn -0.2030 -0.9275 -0.3139
vn -0.5032 -0.8136 -0.2913
vn -0.5644 -0.7424 -0.3609
vn 0.6364 -0.7247 -0.2642
vn 0.5474 -0.7280 -0.4128
vn 0.7369 -0.6690 -0.0974
vn 0.6857 -0.7083 0.1676
vn 0.4396 -0.7069 0.5541
vn 0.4075 -0.6741 0.6160
vn 0.8089 -0.3760 -0.4520
vn 0.7314 -0.1247 -0.6704
vn 0.8222 -0.5675 -0.0443
vn 0.9031 -0.3734 0.2119
vn 0.6538 -0.4484 0.6095
vn 0.4764 -0.4763 0.7390
vn 0.5932 0.5302 -0.6059
vn 0.5154 0.6227 -0.5887
vn 0.9555 0.1078 -0.2747
vn 0.9231 -0.0955 0.3725
vn 0.8341 0.1548 0.5294
vn 0.6640 -0.1226 0.7376
vn 0.5769 0.5457 -0.6078
vn 0.6800 0.4873 -0.5478
vn 0.6226 0.6855 -0.3774
vn 0.7745 0.5193 0.3613
vn 0.7252 0.3332 0.6025
vn 0.7446 0.4057 0.5301
vn -0.6531 -0.7382 0.1690
vn -0.6535 -0.4993 0.5689
vn -0.6912 -0.7223 -0.0239
vn -0.7584 -0.5534 -0.3443
vn -0.5714 -0.6158 -0.5425
vn -0.6090 -0.5307 -0.5895
vn -0.9082 0.1268 0.3989
vn -0.6330 0.2181 0.7427
vn -0.9971 -0.0730 -0.0210
vn -0.9134 -0.1042 -0.3936
vn -0.8095 -0.0548 -0.5846
vn -0.7102 -0.1575 -0.6861
vn -0.8068 0.4877 0.3335
vn -0.4691 0.5718 0.6730
vn -0.8515 0.5220 0.0504
vn -0.8348 0.4839 -0.2626
vn -0.8077 0.2254 -0.5448
vn -0.8081 0.1086 -0.5789
vn -0.4804 0.8014 0.3564
vn -0.4678 0.6350 0.6149
vn -0.7678 0.6365 0.0739
vn -0.8626 0.4521 -0.2272
vn -0.7119 0.6012 -0.3630
vn -0.8085 0.4863 -0.3314
vn 0.4890 -0.5686 0.6615
vn 0.3355 -0.7175 0.6105
vn 0.0227 -0.7559 0.6543
vn -0.1698 -0.4340 0.8848
vn 0.4438 -0.4451 0.7778
vn 0.4903 -0.3221 0.8099
vn -0.1753 -0.3032 0.9367
vn -0.4041 0.1050 0.9087
vn 0.4488 -0.3751 0.8111
vn 0.2854 -0.1321 0.9493
vn -0.2483 0.4413 0.8623
vn -0.4985 0.5514 0.6689
vn 0.6519 0.3558 0.6697
vn 0.1239 0.3801 0.9166
vn -0.4063 0.4647 0.7867
vn -0.5508 0.4763 0.6854
vn -0.7469 -0.4398 -0.4987
vn -0.2577 -0.7411 -0.6200
vn 0.1625 -0.6816 -0.7134
vn 0.3881 -0.7200 -0.5753
vn -0.6246 -0.1679 -0.7627
vn -0.4775 -0.0968 -0.8733
vn 0.2490 -0.2645 -0.9317
vn 0.4379 -0.0512 -0.8976
vn -0.6866 -0.1909 -0.7015
vn -0.4173 -0.0031 -0.9088
vn 0.3261 0.1333 -0.9359
vn 0.6850 0.2997 -0.6640
vn -0.8289 0.3157 -0.4618
vn -0.2571 0.2865 -0.9229
vn 0.3791 0.4917 -0.7839
vn 0.7357 0.4956 -0.4617
vt 0.120677 0.683115
vt 0.056064 0.668699
vt 0.093631 0.635785
vt 0.138528 0.632510
vt 0.087979 0.741313
vt 0.032103 0.731682
vt 0.070206 0.816331
vt 0.025000 0.799627
vt 0.078593 0.884589
vt 0.032573 0.859139
vt 0.079600 0.924623
vt 0.039415 0.904170
vt 0.183785 0.676029
vt 0.201572 0.623658
vt 0.155222 0.745009
vt 0.140422 0.838714
vt 0.135211 0.903466
vt 0.129683 0.940314
vt 0.267736 0.687284
vt 0.269882 0.635849
vt 0.243071 0.771463
vt 0.216127 0.856258
vt 0.201466 0.916383
vt 0.191472 0.975000
vt 0.329639 0.715984
vt 0.326091 0.668579
vt 0.334702 0.793407
vt 0.298930 0.874902
vt 0.271719 0.934702
vt 0.242753 0.969628
vt 0.378061 0.739424
vt 0.367725 0.689907
vt 0.384057 0.811860
vt 0.380033 0.890012
vt 0.327075 0.935884
vt 0.289771 0.972112
vt 0.478280 0.709323
vt 0.436861 0.707725
vt 0.449573 0.670601
vt 0.485897 0.662047
vt 0.528456 0.697388
vt 0.536514 0.652795
vt 0.609412 0.698574
vt 0.600284 0.650905
vt 0.681597 0.713364
vt 0.677401 0.657515
vt 0.729537 0.749308
vt 0.725242 0.682458
vt 0.459262 0.758895
vt 0.404550 0.756301
vt 0.519389 0.765901
vt 0.620001 0.776784
vt 0.688690 0.791926
vt 0.730717 0.807678
vt 0.438805 0.837416
vt 0.399756 0.820208
vt 0.516662 0.852762
vt 0.603294 0.869848
vt 0.672951 0.866919
vt 0.719310 0.870585
vt 0.445111 0.903164
vt 0.400781 0.883566
vt 0.513055 0.924747
vt 0.586584 0.930759
vt 0.650024 0.925254
vt 0.693146 0.919269
vt 0.456796 0.956356
vt 0.413689 0.931083
vt 0.516044 0.975000
vt 0.579118 0.973501
vt 0.634225 0.964067
vt 0.673143 0.953326
vt 0.098213 0.251569
vt 0.107732 0.294901
vt 0.059059 0.293041
vt 0.039502 0.249831
vt 0.165094 0.265931
vt 0.171062 0.302816
vt 0.239824 0.250591
vt 0.239775 0.298326
vt 0.304012 0.248038
vt 0.300975 0.298743
vt 0.350832 0.244819
vt 0.338337 0.285856
vt 0.085577 0.193477
vt 0.025000 0.194964
vt 0.157925 0.193131
vt 0.238955 0.193197
vt 0.311703 0.190072
vt 0.361809 0.195941
vt 0.083390 0.135914
vt 0.031678 0.130999
vt 0.157719 0.133317
vt 0.241966 0.134743
vt 0.313702 0.131133
vt 0.366900 0.136129
vt 0.088976 0.075998
vt 0.045566 0.081960
vt 0.158896 0.070723
vt 0.246893 0.080166
vt 0.310232 0.080382
vt 0.361837 0.086649
vt 0.097042 0.034665
vt 0.052639 0.047412
vt 0.162185 0.026969
vt 0.240463 0.025000
vt 0.310141 0.037081
vt 0.354536 0.049702
vt 0.444373 0.248861
vt 0.464457 0.300791
vt 0.396953 0.283585
vt 0.382729 0.236278
vt 0.519157 0.254467
vt 0.526685 0.302816
vt 0.591861 0.249034
vt 0.594288 0.295201
vt 0.657911 0.247827
vt 0.650152 0.288580
vt 0.699111 0.245044
vt 0.688593 0.283784
vt 0.437887 0.189644
vt 0.382599 0.180492
vt 0.512378 0.199458
vt 0.596803 0.196238
vt 0.662137 0.197493
vt 0.707490 0.197703
vt 0.443000 0.129665
vt 0.390537 0.121897
vt 0.518084 0.125302
vt 0.592746 0.137525
vt 0.659726 0.141520
vt 0.706466 0.144396
vt 0.452688 0.075804
vt 0.408107 0.064792
vt 0.520200 0.075851
vt 0.590527 0.077354
vt 0.652436 0.087922
vt 0.705473 0.097036
vt 0.467459 0.032585
vt 0.422698 0.036533
vt 0.524033 0.026160
vt 0.595860 0.039266
vt 0.647379 0.052543
vt 0.692481 0.060001
vt 0.452633 0.557136
vt 0.457405 0.595098
vt 0.422142 0.590437
vt 0.406541 0.552296
vt 0.512933 0.556126
vt 0.508699 0.602113
vt 0.587629 0.561916
vt 0.574821 0.607960
vt 0.671644 0.548240
vt 0.655171 0.597830
vt 0.730837 0.546441
vt 0.713148 0.594520
vt 0.446280 0.510128
vt 0.395326 0.505831
vt 0.509649 0.499758
vt 0.602953 0.490303
vt 0.675023 0.493274
vt 0.734020 0.490266
vt 0.439362 0.449692
vt 0.386633 0.447135
vt 0.515057 0.436650
vt 0.595339 0.435279
vt 0.672159 0.424837
vt 0.725745 0.434033
vt 0.444752 0.390424
vt 0.390796 0.398021
vt 0.504086 0.381417
vt 0.595111 0.370276
vt 0.660549 0.375822
vt 0.703242 0.378553
vt 0.444712 0.343798
vt 0.394523 0.358690
vt 0.517254 0.326640
vt 0.591905 0.328842
vt 0.651819 0.336700
vt 0.696543 0.344936
vt 0.076595 0.544490
vt 0.083097 0.589330
vt 0.044228 0.579030
vt 0.035825 0.538905
vt 0.153187 0.547226
vt 0.144752 0.607960
vt 0.225493 0.560106
vt 0.218428 0.607054
vt 0.295206 0.557568
vt 0.284169 0.601926
vt 0.348936 0.555981
vt 0.334499 0.601943
vt 0.066312 0.494054
vt 0.025206 0.491148
vt 0.152626 0.497271
vt 0.236042 0.505596
vt 0.311639 0.499736
vt 0.368359 0.500029
vt 0.077724 0.439365
vt 0.025000 0.440355
vt 0.150474 0.440501
vt 0.239573 0.438380
vt 0.316706 0.436962
vt 0.367181 0.434004
vt 0.085998 0.381783
vt 0.031051 0.387222
vt 0.156353 0.372856
vt 0.242661 0.376521
vt 0.320818 0.383674
vt 0.370934 0.385706
vt 0.078060 0.332680
vt 0.025090 0.344938
vt 0.157084 0.318515
vt 0.246199 0.324581
vt 0.314978 0.344087
vt 0.363247 0.351622
s 1
f 48/1/1 46/2/2 31/3/3
f 31/3/3 20/4/4 48/1/1
f 63/5/5 66/6/6 46/2/2
f 46/2/2 48/1/1 63/5/5
f 82/7/7 77/8/8 66/6/6
f 66/6/6 63/5/5 82/7/7
f 102/9/9 97/10/10 77/8/8
f 77/8/8 82/7/7 102/9/9
f 122/11/11 116/12/12 97/10/10
f 97/10/10 102/9/9 122/11/11
f 34/13/13 48/1/1 20/4/4
f 20/4/4 13/14/14 34/13/13
f 57/15/15 63/5/5 48/1/1
f 48/1/1 34/13/13 57/15/15
f 81/16/16 82/7/7 63/5/5
f 63/5/5 57/15/15 81/16/16
f 104/17/17 102/9/9 82/7/7
f 82/7/7 81/16/16 104/17/17
f 121/18/18 122/11/11 102/9/9
f 102/9/9 104/17/17 121/18/18
f 23/19/19 34/13/13 13/14/14
f 13/14/14 11/20/20 23/19/19
f 59/21/21 57/15/15 34/13/13
f 34/13/13 23/19/19 59/21/21
f 79/22/22 81/16/16 57/15/15
f 57/15/15 59/21/21 79/22/22
f 101/23/23 104/17/17 81/16/16
f 81/16/16 79/22/22 101/23/23
f 132/24/24 121/18/18 104/17/17
f 104/17/17 101/23/23 132/24/24
f 36/25/25 23/19/19 11/20/20
f 11/20/20 22/26/26 36/25/25
f 60/27/27 59/21/21 23/19/19
f 23/19/19 36/25/25 60/27/27
f 84/28/28 79/22/22 59/21/21
f 59/21/21 60/27/27 84/28/28
f 106/29/29 101/23/23 79/22/22
f 79/22/22 84/28/28 106/29/29
f 126/30/30 132/24/24 101/23/23
f 101/23/23 106/29/29 126/30/30
f 50/31/31 36/25/25 22/26/26
f 22/26/26 35/32/32 50/31/31
f 67/33/33 60/27/27 36/25/25
f 36/25/25 50/31/31 67/33/33
f 87/34/34 84/28/28 60/27/27
f 60/27/27 67/33/33 87/34/34
f 100/35/35 106/29/29 84/28/28
f 84/28/28 87/34/34 100/35/35
f 112/36/36 126/30/30 106/29/29
f 106/29/29 100/35/35 112/36/36
f 56/37/37 40/38/38 44/39/39
f 44/39/39 55/40/40 56/37/37
f 72/41/41 56/37/37 55/40/40
f 55/40/40 75/42/42 72/41/41
f 88/43/43 72/41/41 75/42/42
f 75/42/42 78/44/44 88/43/43
f 114/45/45 88/43/43 78/44/44
f 78/44/44 107/46/46 114/45/45
f 130/47/47 114/45/45 107/46/46
f 107/46/46 131/48/48 130/47/47
f 51/49/49 25/50/50 40/38/38
f 40/38/38 56/37/37 51/49/49
f 69/51/51 51/49/49 56/37/37
f 56/37/37 72/41/41 69/51/51
f 96/52/52 69/51/51 72/41/41
f 72/41/41 88/43/43 96/52/52
f 120/53/53 96/52/52 88/43/43
f 88/43/43 114/45/45 120/53/53
f 137/54/54 120/53/53 114/45/45
f 114/45/45 130/47/47 137/54/54
f 39/55/55 27/56/56 25/50/50
f 25/50/50 51/49/49 39/55/55
f 71/57/57 39/55/55 51/49/49
f 51/49/49 69/51/51 71/57/57
f 95/58/58 71/57/57 69/51/51
f 69/51/51 96/52/52 95/58/58
f 115/59/59 95/58/58 96/52/52
f 96/52/52 120/53/53 115/59/59
f 136/60/60 115/59/59 120/53/53
f 120/53/53 137/54/54 136/60/60
f 47/61/61 29/62/62 27/56/56
f 27/56/56 39/55/55 47/61/61
f 73/63/63 47/61/61 39/55/55
f 39/55/55 71/57/57 73/63/63
f 86/64/64 73/63/63 71/57/57
f 71/57/57 95/58/58 86/64/64
f 103/65/65 86/64/64 95/58/58
f 95/58/58 115/59/59 103/65/65
f 123/66/66 103/65/65 115/59/59
f 115/59/59 136/60/60 123/66/66
f 54/67/67 38/68/68 29/62/62
f 29/62/62 47/61/61 54/67/67
f 76/69/69 54/67/67 47/61/61
f 47/61/61 73/63/63 76/69/69
f 83/70/70 76/69/69 73/63/63
f 73/63/63 86/64/64 83/70/70
f 98/71/71 83/70/70 86/64/64
f 86/64/64 103/65/65 98/71/71
f 113/72/72 98/71/71 103/65/65
f 103/65/65 123/66/66 113/72/72
f 16/73/73 29/74/62 38/75/68
f 38/75/68 26/76/74 16/73/73
f 17/77/75 27/78/56 29/74/62
f 29/74/62 16/73/73 17/77/75
f 10/79/76 25/80/50 27/78/56
f 27/78/56 17/77/75 10/79/76
f 21/81/77 40/82/38 25/80/50
f 25/80/50 10/79/76 21/81/77
f 33/83/78 44/84/39 40/82/38
f 40/82/38 21/81/77 33/83/78
f 7/85/79 16/73/73 26/76/74
f 26/76/74 15/86/80 7/85/79
f 3/87/81 17/77/75 16/73/73
f 16/73/73 7/85/79 3/87/81
f 4/88/82 10/79/76 17/77/75
f 17/77/75 3/87/81 4/88/82
f 12/89/83 21/81/77 10/79/76
f 10/79/76 4/88/82 12/89/83
f 30/90/84 33/83/78 21/81/77
f 21/81/77 12/89/83 30/90/84
f 8/91/85 7/85/79 15/86/80
f 15/86/80 24/92/86 8/91/85
f 1/93/87 3/87/81 7/85/79
f 7/85/79 8/91/85 1/93/87
f 5/94/88 4/88/82 3/87/81
f 3/87/81 1/93/87 5/94/88
f 9/95/89 12/89/83 4/88/82
f 4/88/82 5/94/88 9/95/89
f 19/96/90 30/90/84 12/89/83
f 12/89/83 9/95/89 19/96/90
f 18/97/91 8/91/85 24/92/86
f 24/92/86 32/98/92 18/97/91
f 6/99/93 1/93/87 8/91/85
f 8/91/85 18/97/91 6/99/93
f 2/100/94 5/94/88 1/93/87
f 1/93/87 6/99/93 2/100/94
f 14/101/95 9/95/89 5/94/88
f 5/94/88 2/100/94 14/101/95
f 28/102/96 19/96/90 9/95/89
f 9/95/89 14/101/95 28/102/96
f 22/103/26 18/97/91 32/98/92
f 32/98/92 35/104/32 22/103/26
f 11/105/20 6/99/93 18/97/91
f 18/97/91 22/103/26 11/105/20
f 13/106/14 2/100/94 6/99/93
f 6/99/93 11/105/20 13/106/14
f 20/107/4 14/101/95 2/100/94
f 2/100/94 13/106/14 20/107/4
f 31/108/3 28/102/96 14/101/95
f 14/101/95 20/107/4 31/108/3
f 146/109/97 130/110/47 131/111/48
f 131/111/48 143/112/98 146/109/97
f 150/113/99 137/114/54 130/110/47
f 130/110/47 146/109/97 150/113/99
f 147/115/100 136/116/60 137/114/54
f 137/114/54 150/113/99 147/115/100
f 133/117/101 123/118/66 136/116/60
f 136/116/60 147/115/100 133/117/101
f 125/119/102 113/120/72 123/118/66
f 123/118/66 133/117/101 125/119/102
f 151/121/103 146/109/97 143/112/98
f 143/112/98 141/122/104 151/121/103
f 152/123/105 150/113/99 146/109/97
f 146/109/97 151/121/103 152/123/105
f 148/124/106 147/115/100 150/113/99
f 150/113/99 152/123/105 148/124/106
f 140/125/107 133/117/101 147/115/100
f 147/115/100 148/124/106 140/125/107
f 128/126/108 125/119/102 133/117/101
f 133/117/101 140/125/107 128/126/108
f 144/127/109 151/121/103 141/122/104
f 141/122/104 134/128/110 144/127/109
f 145/129/111 152/123/105 151/121/103
f 151/121/103 144/127/109 145/129/111
f 149/130/112 148/124/106 152/123/105
f 152/123/105 145/129/111 149/130/112
f 139/131/113 140/125/107 148/124/106
f 148/124/106 149/130/112 139/131/113
f 124/132/114 128/126/108 140/125/107
f 140/125/107 139/131/113 124/132/114
f 135/133/115 144/127/109 134/128/110
f 134/128/110 119/134/116 135/133/115
f 142/135/117 145/129/111 144/127/109
f 144/127/109 135/133/115 142/135/117
f 138/136/118 149/130/112 145/129/111
f 145/129/111 142/135/117 138/136/118
f 129/137/119 139/131/113 149/130/112
f 149/130/112 138/136/118 129/137/119
f 127/138/120 124/132/114 139/131/113
f 139/131/113 129/137/119 127/138/120
f 122/139/11 135/133/115 119/134/116
f 119/134/116 116/140/12 122/139/11
f 121/141/18 142/135/117 135/133/115
f 135/133/115 122/139/11 121/141/18
f 132/142/24 138/136/118 142/135/117
f 142/135/117 121/141/18 132/142/24
f 126/143/30 129/137/119 138/136/118
f 138/136/118 132/142/24 126/143/30
f 112/144/36 127/138/120 129/137/119
f 129/137/119 126/143/30 112/144/36
f 53/145/121 55/146/40 44/147/39
f 44/147/39 33/148/78 53/145/121
f 70/149/122 75/150/42 55/146/40
f 55/146/40 53/145/121 70/149/122
f 85/151/123 78/152/44 75/150/42
f 75/150/42 70/149/122 85/151/123
f 118/153/124 107/154/46 78/152/44
f 78/152/44 85/151/123 118/153/124
f 143/155/98 131/156/48 107/154/46
f 107/154/46 118/153/124 143/155/98
f 52/157/125 53/145/121 33/148/78
f 33/148/78 30/158/84 52/157/125
f 65/159/126 70/149/122 53/145/121
f 53/145/121 52/157/125 65/159/126
f 94/160/127 85/151/123 70/149/122
f 70/149/122 65/159/126 94/160/127
f 117/161/128 118/153/124 85/151/123
f 85/151/123 94/160/127 117/161/128
f 141/162/104 143/155/98 118/153/124
f 118/153/124 117/161/128 141/162/104
f 45/163/129 52/157/125 30/158/84
f 30/158/84 19/164/90 45/163/129
f 64/165/130 65/159/126 52/157/125
f 52/157/125 45/163/129 64/165/130
f 90/166/131 94/160/127 65/159/126
f 65/159/126 64/165/130 90/166/131
f 109/167/132 117/161/128 94/160/127
f 94/160/127 90/166/131 109/167/132
f 134/168/110 141/162/104 117/161/128
f 117/161/128 109/167/132 134/168/110
f 42/169/133 45/163/129 19/164/90
f 19/164/90 28/170/96 42/169/133
f 58/171/134 64/165/130 45/163/129
f 45/163/129 42/169/133 58/171/134
f 80/172/135 90/166/131 64/165/130
f 64/165/130 58/171/134 80/172/135
f 99/173/136 109/167/132 90/166/131
f 90/166/131 80/172/135 99/173/136
f 119/174/116 134/168/110 109/167/132
f 109/167/132 99/173/136 119/174/116
f 46/175/2 42/169/133 28/170/96
f 28/170/96 31/176/3 46/175/2
f 66/177/6 58/171/134 42/169/133
f 42/169/133 46/175/2 66/177/6
f 77/178/8 80/172/135 58/171/134
f 58/171/134 66/177/6 77/178/8
f 97/179/10 99/173/136 80/172/135
f 80/172/135 77/178/8 97/179/10
f 116/180/12 119/174/116 99/173/136
f 99/173/136 97/179/10 116/180/12
f 108/181/137 98/182/71 113/183/72
f 113/183/72 125/184/102 108/181/137
f 91/185/138 83/186/70 98/182/71
f 98/182/71 108/181/137 91/185/138
f 74/187/139 76/188/69 83/186/70
f 83/186/70 91/185/138 74/187/139
f 49/189/140 54/190/67 76/188/69
f 76/188/69 74/187/139 49/189/140
f 26/191/74 38/192/68 54/190/67
f 54/190/67 49/189/140 26/191/74
f 105/193/141 108/181/137 125/184/102
f 125/184/102 128/194/108 105/193/141
f 93/195/142 91/185/138 108/181/137
f 108/181/137 105/193/141 93/195/142
f 68/196/143 74/187/139 91/185/138
f 91/185/138 93/195/142 68/196/143
f 37/197/144 49/189/140 74/187/139
f 74/187/139 68/196/143 37/197/144
f 15/198/80 26/191/74 49/189/140
f 49/189/140 37/197/144 15/198/80
f 110/199/145 105/193/141 128/194/108
f 128/194/108 124/200/114 110/199/145
f 89/201/146 93/195/142 105/193/141
f 105/193/141 110/199/145 89/201/146
f 61/202/147 68/196/143 93/195/142
f 93/195/142 89/201/146 61/202/147
f 41/203/148 37/197/144 68/196/143
f 68/196/143 61/202/147 41/203/148
f 24/204/86 15/198/80 37/197/144
f 37/197/144 41/203/148 24/204/86
f 111/205/149 110/199/145 124/200/114
f 124/200/114 127/206/120 111/205/149
f 92/207/150 89/201/146 110/199/145
f 110/199/145 111/205/149 92/207/150
f 62/208/151 61/202/147 89/201/146
f 89/201/146 92/207/150 62/208/151
f 43/209/152 41/203/148 61/202/147
f 61/202/147 62/208/151 43/209/152
f 32/210/92 24/204/86 41/203/148
f 41/203/148 43/209/152 32/210/92
f 100/211/35 111/205/149 127/206/120
f 127/206/120 112/212/36 100/211/35
f 87/213/34 92/207/150 111/205/149
f 111/205/149 100/211/35 87/213/34
f 67/214/33 62/208/151 92/207/150
f 92/207/150 87/213/34 67/214/33
f 50/215/31 43/209/152 62/208/151
f 62/208/151 67/214/33 50/215/31
f 35/216/32 32/210/92 43/209/152
f 43/209/152 50/215/31 35/216/32
