# Blender 5.1.2
# www.blender.org
mtllib asteroids_asteroid_02.mtl
o asteroid
v 1.248821 -0.250276 -0.217707
v 1.175177 0.249785 -0.199312
v 1.152080 0.730671 -0.217725
v 1.083784 -0.641307 -0.197098
v 1.064870 0.196895 -0.595429
v 1.043996 -0.645116 0.223619
v 1.039086 -0.235749 0.248778
v 1.035106 -0.226100 -0.573498
v 1.006783 -0.223515 0.651253
v 0.991099 0.607996 0.241939
v 0.965598 0.188493 0.646265
v 0.956338 0.188319 0.260306
v 0.947585 -0.579015 -0.547860
v 0.947568 1.044859 -0.204336
v 0.944431 0.577943 -0.577218
v 0.912739 0.566683 0.605600
v 0.911748 -0.911863 0.150680
v 0.905196 -0.905296 -0.204306
v 0.901204 -0.549856 0.546113
v 0.887099 0.978893 -0.597745
v 0.876490 0.508903 0.945432
v 0.869442 -0.869541 0.485204
v 0.861950 -0.164578 -0.820661
v 0.860792 -0.217241 0.933984
v 0.854450 0.139816 0.964854
v 0.838217 0.182956 -0.845553
v 0.824827 -0.482325 -0.801857
v 0.824371 0.894250 0.192412
v 0.822044 -0.521183 0.818769
v 0.811772 -0.811767 -0.498017
v 0.801366 0.844328 0.532694
v 0.792884 -0.792894 0.746913
v 0.778617 0.507447 -0.823816
v 0.777841 0.794837 0.851938
v 0.774416 -0.774464 -0.791597
v 0.749860 0.850278 -0.829003
v 0.589210 -0.982421 0.556383
v 0.581787 -0.980796 -0.217136
v 0.581251 -0.188362 -0.957271
v 0.575712 -0.918005 0.168826
v 0.563860 1.106671 -0.202982
v 0.556081 -0.556191 -0.941246
v 0.555314 -0.555308 0.907139
v 0.545217 -0.886579 -0.539982
v 0.538313 -0.856109 0.841208
v 0.526690 0.562199 0.960486
v 0.524845 -0.192474 0.944670
v 0.522223 0.183417 0.993457
v 0.520260 0.190565 -0.930162
v 0.520205 1.063159 -0.635649
v 0.500552 -0.859322 -0.855293
v 0.500189 1.018563 0.205747
v 0.485936 0.902690 0.530854
v 0.473946 0.540588 -0.908930
v 0.445866 0.841309 0.820712
v 0.438344 0.897122 -0.919531
v 0.219037 -0.571901 1.002471
v 0.218284 -0.992780 -0.611703
v 0.213382 -0.975208 0.178820
v 0.210609 -0.971663 0.570816
v 0.207117 -1.048858 -0.235526
v 0.204066 -0.835556 0.843953
v 0.201618 -0.201618 -1.078836
v 0.189240 -0.583959 -0.986853
v 0.185402 -0.944018 -0.971770
v 0.164621 -0.164612 0.963683
v 0.151520 0.646531 0.972509
v 0.149090 0.239471 1.030691
v 0.144494 0.215166 -1.066164
v 0.122298 0.968355 0.520708
v 0.111392 1.055486 -0.222510
v 0.111032 0.915611 0.847064
v 0.106462 0.602237 -1.053103
v 0.104217 1.070395 0.183774
v 0.095897 1.010646 -1.025828
v 0.085672 1.069999 -0.658076
v -0.135901 -0.803355 0.790815
v -0.167610 -0.939571 -0.622418
v -0.181461 -0.820870 -0.923043
v -0.184990 -0.516910 0.911651
v -0.186533 -0.963116 0.544474
v -0.205578 -0.977044 -0.258396
v -0.207348 -1.047056 0.182139
v -0.224294 -0.145712 -1.127000
v -0.230708 -0.578876 -1.132001
v -0.230935 0.898344 0.777114
v -0.242256 -0.153790 1.005377
v -0.257772 0.974626 0.492450
v -0.265100 0.689610 1.005202
v -0.274638 0.274638 -1.073785
v -0.279742 0.279662 1.061049
v -0.291026 1.003882 -1.019712
v -0.291590 0.682266 -1.074625
v -0.299643 1.076992 -0.273787
v -0.308822 1.120076 0.142325
v -0.314003 0.999936 -0.666958
v -0.475722 -0.810335 0.786261
v -0.510203 -0.836129 -0.595223
v -0.513400 -0.778936 -0.910295
v -0.531820 -0.506247 0.848167
v -0.549558 -0.865748 -0.247968
v -0.573404 -0.099347 -0.999338
v -0.574584 0.891362 0.800853
v -0.596184 -0.499644 -1.044140
v -0.596502 -0.969788 0.545976
v -0.600135 0.599986 0.881534
v -0.600116 0.893879 -0.879246
v -0.601175 -0.147987 0.891042
v -0.610161 0.267907 -0.956384
v -0.622927 0.622926 -0.948805
v -0.630751 0.235016 0.913689
v -0.634360 -1.027653 0.143412
v -0.649348 1.001655 0.514798
v -0.705276 1.047741 -0.651455
v -0.719314 1.081740 0.153437
v -0.720531 1.100018 -0.259865
v -0.791845 -0.778482 0.754493
v -0.820325 -0.446301 0.760590
v -0.821638 -0.786016 0.431333
v -0.839954 -0.775575 -0.594012
v -0.846452 -0.785403 0.094012
v -0.856892 -0.756783 -0.929712
v -0.877048 -0.817402 -0.262846
v -0.881836 -0.435588 -0.942547
v -0.881999 -0.446357 -0.607481
v -0.886210 -0.113126 0.815880
v -0.897362 0.897362 -0.869393
v -0.908876 0.586375 0.813309
v -0.918183 0.236877 0.817007
v -0.922916 -0.087790 -0.958332
v -0.939423 0.291281 -0.620946
v -0.943846 -0.502747 0.493517
v -0.950235 0.619563 -0.933881
v -0.954537 0.273668 -0.955929
v -0.956471 0.956427 0.800077
v -0.957535 0.957535 -0.263102
v -0.958123 -0.494266 -0.269803
v -0.979639 -0.082434 -0.646177
v -0.980292 0.661368 -0.623411
v -0.984389 0.984389 0.088275
v -0.990766 0.990766 0.465031
v -0.991958 -0.486719 0.116859
v -1.031987 -0.126756 0.544245
v -1.047278 1.047277 -0.648232
v -1.048602 0.686385 0.525623
v -1.059824 0.290152 0.525559
v -1.076029 0.304321 -0.299455
v -1.089414 0.706440 -0.284335
v -1.130451 -0.109047 -0.286470
v -1.171210 -0.132372 0.164419
v -1.196774 0.772965 0.138806
v -1.330978 0.335401 0.142426
vn 0.6401 -0.5028 0.5809
vn 0.6802 -0.2973 0.6701
vn 0.2543 -0.2382 0.9373
vn 0.1936 -0.6446 0.7396
vn -0.0313 -0.1892 0.9814
vn -0.1061 -0.6833 0.7224
vn -0.1480 -0.2817 0.9480
vn -0.0858 -0.6866 0.7220
vn -0.1576 -0.2662 0.9510
vn -0.0672 -0.5934 0.8021
vn -0.6684 -0.2113 0.7132
vn -0.5327 -0.4673 0.7056
vn 0.6184 -0.2139 0.7562
vn 0.1726 -0.1683 0.9705
vn 0.0519 -0.0761 0.9957
vn -0.1523 -0.1310 0.9796
vn -0.2674 -0.1682 0.9488
vn -0.6276 -0.1561 0.7628
vn 0.6478 -0.0330 0.7611
vn 0.0680 -0.0206 0.9975
vn 0.0841 -0.0157 0.9963
vn -0.1353 -0.0073 0.9908
vn -0.3228 0.0058 0.9464
vn -0.6407 -0.0056 0.7678
vn 0.6811 0.2236 0.6972
vn 0.1093 0.2402 0.9645
vn 0.1129 0.2883 0.9509
vn -0.1630 0.3822 0.9096
vn -0.3494 0.3213 0.8802
vn -0.6492 0.0871 0.7557
vn 0.4740 0.6979 0.5369
vn 0.1595 0.7712 0.6162
vn 0.1036 0.7859 0.6096
vn -0.1041 0.8171 0.5670
vn -0.1275 0.8214 0.5559
vn -0.4634 0.5591 0.6876
vn 0.4770 -0.5986 -0.6436
vn 0.3796 -0.6782 -0.6292
vn 0.3201 -0.1407 -0.9369
vn 0.5754 -0.2451 -0.7803
vn 0.1462 -0.7276 -0.6703
vn 0.1807 -0.1653 -0.9696
vn -0.1986 -0.7471 -0.6343
vn -0.0461 -0.2457 -0.9682
vn -0.1524 -0.7977 -0.5835
vn -0.1678 -0.2543 -0.9525
vn -0.5290 -0.7013 -0.4778
vn -0.7561 -0.2321 -0.6119
vn 0.3416 -0.0197 -0.9396
vn 0.6211 -0.1182 -0.7748
vn 0.2179 -0.0307 -0.9755
vn -0.0340 -0.0239 -0.9991
vn -0.2472 0.0807 -0.9656
vn -0.7441 0.0267 -0.6676
vn 0.3369 0.0742 -0.9386
vn 0.5759 0.0680 -0.8147
vn 0.1982 0.0758 -0.9772
vn -0.1333 0.0373 -0.9904
vn -0.1964 0.0478 -0.9793
vn -0.7007 0.0449 -0.7121
vn 0.3104 0.0579 -0.9488
vn 0.5657 0.1279 -0.8146
vn 0.2032 0.0546 -0.9776
vn -0.1571 0.0628 -0.9856
vn -0.1920 0.1057 -0.9757
vn -0.7132 -0.0039 -0.7009
vn 0.2741 0.5505 -0.7886
vn 0.5145 0.3465 -0.7843
vn 0.0971 0.6977 -0.7098
vn -0.1239 0.6387 -0.7594
vn -0.0950 0.5698 -0.8162
vn -0.4905 0.4278 -0.7592
vn 0.1745 -0.9645 0.1983
vn 0.7227 -0.5948 0.3520
vn -0.0678 -0.9820 0.1765
vn -0.0379 -0.9495 0.3116
vn -0.2100 -0.8883 0.4085
vn -0.7759 -0.5732 0.2634
vn 0.1398 -0.9895 0.0370
vn 0.6412 -0.7421 0.1954
vn 0.0682 -0.9967 0.0450
vn 0.0333 -0.9975 0.0626
vn -0.3709 -0.9274 -0.0481
vn -0.8148 -0.5795 -0.0152
vn 0.1504 -0.9798 -0.1315
vn 0.5398 -0.8186 -0.1960
vn 0.0900 -0.9955 -0.0293
vn -0.0856 -0.9940 -0.0683
vn -0.2945 -0.9328 -0.2078
vn -0.7423 -0.6532 -0.1493
vn 0.2596 -0.9364 -0.2363
vn 0.5228 -0.7630 -0.3802
vn 0.0571 -0.9824 -0.1779
vn -0.2265 -0.9560 -0.1863
vn -0.2329 -0.9544 -0.1869
vn -0.6946 -0.7104 -0.1130
vn -0.9506 -0.2500 0.1842
vn -0.9234 -0.1560 0.3506
vn -0.8864 -0.0194 0.4624
vn -0.8864 0.0496 0.4603
vn -0.5849 0.7512 0.3059
vn -0.9207 -0.3860 0.0568
vn -0.9596 -0.2716 0.0734
vn -0.9954 -0.0280 0.0918
vn -0.9394 0.3381 0.0565
vn -0.5662 0.8242 -0.0004
vn -0.9173 -0.3882 -0.0880
vn -0.9387 -0.2749 -0.2079
vn -0.9352 0.0047 -0.3540
vn -0.8532 0.3482 -0.3884
vn -0.6309 0.7684 -0.1074
vn -0.9609 -0.2615 -0.0910
vn -0.9704 -0.1135 -0.2130
vn -0.9731 0.0258 -0.2291
vn -0.9800 0.0423 -0.1945
vn -0.7499 0.6260 -0.2137
vn 0.0563 0.9857 0.1585
vn -0.0079 0.9525 0.3043
vn 0.0690 0.9585 0.2765
vn 0.1688 0.9533 0.2506
vn 0.6077 0.7601 0.2300
vn -0.0927 0.9951 0.0334
vn 0.0261 0.9904 0.1356
vn 0.1050 0.9852 0.1357
vn 0.2080 0.9551 0.2109
vn 0.5939 0.7433 0.3080
vn -0.2233 0.9742 0.0318
vn 0.0409 0.9946 -0.0956
vn 0.0559 0.9958 -0.0726
vn 0.1360 0.9901 0.0361
vn 0.5754 0.8123 0.0957
vn -0.1020 0.9616 -0.2550
vn 0.0089 0.9754 -0.2201
vn -0.0474 0.9957 -0.0792
vn 0.0799 0.9764 -0.2007
vn 0.5898 0.6967 -0.4083
vn 0.9650 0.2191 0.1440
vn 0.9862 0.0486 0.1585
vn 0.9669 -0.1351 0.2165
vn 0.9156 -0.2430 0.3203
vn 0.9241 0.2590 0.2811
vn 0.9655 0.0901 0.2441
vn 0.9710 -0.0225 0.2379
vn 0.9317 -0.2518 0.2618
vn 0.9582 0.2859 0.0050
vn 0.9973 0.0733 -0.0095
vn 0.9996 -0.0180 0.0198
vn 0.9228 -0.3695 -0.1093
vn 0.8447 0.2379 -0.4795
vn 0.8472 0.0906 -0.5235
vn 0.8381 -0.1368 -0.5281
vn 0.7597 -0.4072 -0.5070
vt 0.640273 0.687242
vt 0.643574 0.732866
vt 0.597929 0.729631
vt 0.595613 0.679676
vt 0.542261 0.727653
vt 0.539896 0.679266
vt 0.475287 0.732027
vt 0.480756 0.681229
vt 0.417128 0.733067
vt 0.423938 0.682475
vt 0.367832 0.742496
vt 0.371964 0.688399
vt 0.649417 0.785281
vt 0.595057 0.788693
vt 0.536419 0.791803
vt 0.470155 0.792082
vt 0.408881 0.791909
vt 0.361078 0.798576
vt 0.649141 0.844089
vt 0.595439 0.850583
vt 0.535490 0.857162
vt 0.467171 0.860689
vt 0.406950 0.854180
vt 0.358457 0.856085
vt 0.653176 0.904918
vt 0.596474 0.912944
vt 0.535630 0.923404
vt 0.469713 0.924530
vt 0.413201 0.914084
vt 0.362279 0.912699
vt 0.637644 0.954325
vt 0.583426 0.963844
vt 0.527489 0.970847
vt 0.470402 0.971849
vt 0.416089 0.962558
vt 0.354633 0.972270
vt 0.378970 0.625866
vt 0.367722 0.580239
vt 0.418338 0.587888
vt 0.425668 0.637221
vt 0.356824 0.526632
vt 0.413802 0.529112
vt 0.370128 0.466407
vt 0.418563 0.460342
vt 0.377938 0.410202
vt 0.428792 0.401157
vt 0.387120 0.355063
vt 0.439458 0.353309
vt 0.476939 0.595748
vt 0.477184 0.646056
vt 0.476497 0.532395
vt 0.485795 0.464996
vt 0.494292 0.406411
vt 0.497444 0.350024
vt 0.538445 0.592790
vt 0.533916 0.645859
vt 0.543116 0.528577
vt 0.553297 0.461507
vt 0.553923 0.404244
vt 0.556387 0.348762
vt 0.595563 0.590741
vt 0.588019 0.641523
vt 0.605251 0.527348
vt 0.618008 0.463728
vt 0.611025 0.406094
vt 0.612319 0.352728
vt 0.653698 0.586152
vt 0.644333 0.639137
vt 0.671320 0.527389
vt 0.670042 0.465185
vt 0.656265 0.410280
vt 0.658263 0.363030
vt 0.308414 0.695577
vt 0.321779 0.739460
vt 0.271662 0.733685
vt 0.262491 0.685510
vt 0.324862 0.794193
vt 0.275152 0.793514
vt 0.321086 0.850424
vt 0.273148 0.856844
vt 0.317800 0.908098
vt 0.271966 0.922022
vt 0.311191 0.959132
vt 0.259886 0.968974
vt 0.209328 0.733342
vt 0.206798 0.679266
vt 0.211560 0.792441
vt 0.213149 0.859651
vt 0.209543 0.926149
vt 0.201284 0.975000
vt 0.146059 0.733306
vt 0.148232 0.679654
vt 0.144317 0.794446
vt 0.142158 0.861601
vt 0.143669 0.920648
vt 0.143033 0.973625
vt 0.091219 0.736429
vt 0.096177 0.691054
vt 0.083454 0.793253
vt 0.083353 0.856681
vt 0.087568 0.914908
vt 0.088567 0.969441
vt 0.039984 0.745109
vt 0.047686 0.697571
vt 0.025000 0.800066
vt 0.031969 0.863222
vt 0.035907 0.917404
vt 0.034159 0.973278
vt 0.039195 0.356254
vt 0.092278 0.356019
vt 0.084718 0.403798
vt 0.034795 0.408752
vt 0.148158 0.348762
vt 0.146111 0.398269
vt 0.206898 0.350241
vt 0.212959 0.401164
vt 0.265033 0.354872
vt 0.277119 0.407064
vt 0.324483 0.365411
vt 0.325496 0.419762
vt 0.083605 0.465767
vt 0.030429 0.465820
vt 0.145147 0.462685
vt 0.216334 0.470008
vt 0.281853 0.472542
vt 0.325993 0.481600
vt 0.078169 0.529360
vt 0.025000 0.525919
vt 0.144356 0.533629
vt 0.208787 0.544258
vt 0.273576 0.541084
vt 0.317892 0.539795
vt 0.082222 0.586322
vt 0.028716 0.581280
vt 0.143110 0.595231
vt 0.204260 0.596976
vt 0.264843 0.596753
vt 0.327053 0.600793
vt 0.082333 0.640561
vt 0.030107 0.636290
vt 0.139255 0.646168
vt 0.199134 0.649495
vt 0.256003 0.646497
vt 0.301180 0.640617
vt 0.357183 0.041646
vt 0.419798 0.034982
vt 0.410062 0.084851
vt 0.355631 0.095980
vt 0.476567 0.037038
vt 0.473543 0.084560
vt 0.532834 0.027040
vt 0.534700 0.080501
vt 0.588461 0.030315
vt 0.594126 0.078124
vt 0.642706 0.025000
vt 0.645870 0.076689
vt 0.402922 0.144442
vt 0.358585 0.155894
vt 0.467494 0.144978
vt 0.532324 0.137026
vt 0.595279 0.132878
vt 0.650865 0.130109
vt 0.405660 0.210224
vt 0.362881 0.211781
vt 0.471908 0.211376
vt 0.535900 0.201923
vt 0.607224 0.198272
vt 0.669163 0.197295
vt 0.409150 0.272919
vt 0.354668 0.274185
vt 0.471115 0.275317
vt 0.534706 0.271593
vt 0.602627 0.266928
vt 0.662912 0.261353
vt 0.427110 0.315853
vt 0.379776 0.316114
vt 0.478126 0.330652
vt 0.537475 0.330957
vt 0.594602 0.319871
vt 0.645834 0.306331
vt 0.049005 0.048281
vt 0.098023 0.032404
vt 0.091556 0.087524
vt 0.043258 0.099710
vt 0.157236 0.025000
vt 0.152436 0.078542
vt 0.215473 0.026347
vt 0.218372 0.076194
vt 0.267316 0.039855
vt 0.274263 0.085568
vt 0.312589 0.048284
vt 0.326418 0.092800
vt 0.090484 0.145976
vt 0.036777 0.152630
vt 0.156029 0.136797
vt 0.224116 0.137959
vt 0.288345 0.141532
vt 0.336322 0.148329
vt 0.081505 0.221854
vt 0.025000 0.222301
vt 0.153327 0.216516
vt 0.228273 0.215506
vt 0.289894 0.208754
vt 0.339782 0.209122
vt 0.100836 0.285347
vt 0.035505 0.285441
vt 0.163729 0.280440
vt 0.230522 0.277788
vt 0.288500 0.270568
vt 0.331475 0.263078
vt 0.108865 0.333256
vt 0.052232 0.330120
vt 0.165180 0.333876
vt 0.225400 0.326232
vt 0.280418 0.317997
vt 0.328725 0.310786
s 1
usemtl Standardmaterial.007
f 32/1/1 29/2/2 43/3/3 45/4/4
f 45/4/4 43/3/3 57/5/5 62/6/6
f 62/6/6 57/5/5 80/7/7 77/8/8
f 77/8/8 80/7/7 100/9/9 97/10/10
f 97/10/10 100/9/9 118/11/11 117/12/12
f 29/2/2 24/13/13 47/14/14 43/3/3
f 43/3/3 47/14/14 66/15/15 57/5/5
f 57/5/5 66/15/15 87/16/16 80/7/7
f 80/7/7 87/16/16 108/17/17 100/9/9
f 100/9/9 108/17/17 126/18/18 118/11/11
f 24/13/13 25/19/19 48/20/20 47/14/14
f 47/14/14 48/20/20 68/21/21 66/15/15
f 66/15/15 68/21/21 91/22/22 87/16/16
f 87/16/16 91/22/22 111/23/23 108/17/17
f 108/17/17 111/23/23 129/24/24 126/18/18
f 25/19/19 21/25/25 46/26/26 48/20/20
f 48/20/20 46/26/26 67/27/27 68/21/21
f 68/21/21 67/27/27 89/28/28 91/22/22
f 91/22/22 89/28/28 106/29/29 111/23/23
f 111/23/23 106/29/29 128/30/30 129/24/24
f 21/25/25 34/31/31 55/32/32 46/26/26
f 46/26/26 55/32/32 72/33/33 67/27/27
f 67/27/27 72/33/33 86/34/34 89/28/28
f 89/28/28 86/34/34 103/35/35 106/29/29
f 106/29/29 103/35/35 135/36/36 128/30/30
f 35/37/37 51/38/38 42/39/39 27/40/40
f 51/38/38 65/41/41 64/42/42 42/39/39
f 65/41/41 79/43/43 85/44/44 64/42/42
f 79/43/43 99/45/45 104/46/46 85/44/44
f 99/45/45 122/47/47 124/48/48 104/46/46
f 27/40/40 42/39/39 39/49/49 23/50/50
f 42/39/39 64/42/42 63/51/51 39/49/49
f 64/42/42 85/44/44 84/52/52 63/51/51
f 85/44/44 104/46/46 102/53/53 84/52/52
f 104/46/46 124/48/48 130/54/54 102/53/53
f 23/50/50 39/49/49 49/55/55 26/56/56
f 39/49/49 63/51/51 69/57/57 49/55/55
f 63/51/51 84/52/52 90/58/58 69/57/57
f 84/52/52 102/53/53 109/59/59 90/58/58
f 102/53/53 130/54/54 134/60/60 109/59/59
f 26/56/56 49/55/55 54/61/61 33/62/62
f 49/55/55 69/57/57 73/63/63 54/61/61
f 69/57/57 90/58/58 93/64/64 73/63/63
f 90/58/58 109/59/59 110/65/65 93/64/64
f 109/59/59 134/60/60 133/66/66 110/65/65
f 33/62/62 54/61/61 56/67/67 36/68/68
f 54/61/61 73/63/63 75/69/69 56/67/67
f 73/63/63 93/64/64 92/70/70 75/69/69
f 93/64/64 110/65/65 107/71/71 92/70/70
f 110/65/65 133/66/66 127/72/72 107/71/71
f 32/73/1 45/74/4 37/75/73 22/76/74
f 45/74/4 62/77/6 60/78/75 37/75/73
f 62/77/6 77/79/8 81/80/76 60/78/75
f 77/79/8 97/81/10 105/82/77 81/80/76
f 97/81/10 117/83/12 119/84/78 105/82/77
f 22/76/74 37/75/73 40/85/79 17/86/80
f 37/75/73 60/78/75 59/87/81 40/85/79
f 60/78/75 81/80/76 83/88/82 59/87/81
f 81/80/76 105/82/77 112/89/83 83/88/82
f 105/82/77 119/84/78 121/90/84 112/89/83
f 17/86/80 40/85/79 38/91/85 18/92/86
f 40/85/79 59/87/81 61/93/87 38/91/85
f 59/87/81 83/88/82 82/94/88 61/93/87
f 83/88/82 112/89/83 101/95/89 82/94/88
f 112/89/83 121/90/84 123/96/90 101/95/89
f 18/92/86 38/91/85 44/97/91 30/98/92
f 38/91/85 61/93/87 58/99/93 44/97/91
f 61/93/87 82/94/88 78/100/94 58/99/93
f 82/94/88 101/95/89 98/101/95 78/100/94
f 101/95/89 123/96/90 120/102/96 98/101/95
f 30/98/92 44/97/91 51/103/38 35/104/37
f 44/97/91 58/99/93 65/105/41 51/103/38
f 58/99/93 78/100/94 79/106/43 65/105/41
f 78/100/94 98/101/95 99/107/45 79/106/43
f 98/101/95 120/102/96 122/108/47 99/107/45
f 117/109/12 118/110/11 132/111/97 119/112/78
f 118/110/11 126/113/18 143/114/98 132/111/97
f 126/113/18 129/115/24 146/116/99 143/114/98
f 129/115/24 128/117/30 145/118/100 146/116/99
f 128/117/30 135/119/36 141/120/101 145/118/100
f 119/112/78 132/111/97 142/121/102 121/122/84
f 132/111/97 143/114/98 150/123/103 142/121/102
f 143/114/98 146/116/99 152/124/104 150/123/103
f 146/116/99 145/118/100 151/125/105 152/124/104
f 145/118/100 141/120/101 140/126/106 151/125/105
f 121/122/84 142/121/102 137/127/107 123/128/90
f 142/121/102 150/123/103 149/129/108 137/127/107
f 150/123/103 152/124/104 147/130/109 149/129/108
f 152/124/104 151/125/105 148/131/110 147/130/109
f 151/125/105 140/126/106 136/132/111 148/131/110
f 123/128/90 137/127/107 125/133/112 120/134/96
f 137/127/107 149/129/108 138/135/113 125/133/112
f 149/129/108 147/130/109 131/136/114 138/135/113
f 147/130/109 148/131/110 139/137/115 131/136/114
f 148/131/110 136/132/111 144/138/116 139/137/115
f 120/134/96 125/133/112 124/139/48 122/140/47
f 125/133/112 138/135/113 130/141/54 124/139/48
f 138/135/113 131/136/114 134/142/60 130/141/54
f 131/136/114 139/137/115 133/143/66 134/142/60
f 139/137/115 144/138/116 127/144/72 133/143/66
f 135/145/36 103/146/35 113/147/117 141/148/101
f 103/146/35 86/149/34 88/150/118 113/147/117
f 86/149/34 72/151/33 70/152/119 88/150/118
f 72/151/33 55/153/32 53/154/120 70/152/119
f 55/153/32 34/155/31 31/156/121 53/154/120
f 141/148/101 113/147/117 115/157/122 140/158/106
f 113/147/117 88/150/118 95/159/123 115/157/122
f 88/150/118 70/152/119 74/160/124 95/159/123
f 70/152/119 53/154/120 52/161/125 74/160/124
f 53/154/120 31/156/121 28/162/126 52/161/125
f 140/158/106 115/157/122 116/163/127 136/164/111
f 115/157/122 95/159/123 94/165/128 116/163/127
f 95/159/123 74/160/124 71/166/129 94/165/128
f 74/160/124 52/161/125 41/167/130 71/166/129
f 52/161/125 28/162/126 14/168/131 41/167/130
f 136/164/111 116/163/127 114/169/132 144/170/116
f 116/163/127 94/165/128 96/171/133 114/169/132
f 94/165/128 71/166/129 76/172/134 96/171/133
f 71/166/129 41/167/130 50/173/135 76/172/134
f 41/167/130 14/168/131 20/174/136 50/173/135
f 144/170/116 114/169/132 107/175/71 127/176/72
f 114/169/132 96/171/133 92/177/70 107/175/71
f 96/171/133 76/172/134 75/178/69 92/177/70
f 76/172/134 50/173/135 56/179/67 75/178/69
f 50/173/135 20/174/136 36/180/68 56/179/67
f 34/181/31 21/182/25 16/183/137 31/184/121
f 21/182/25 25/185/19 11/186/138 16/183/137
f 25/185/19 24/187/13 9/188/139 11/186/138
f 24/187/13 29/189/2 19/190/140 9/188/139
f 29/189/2 32/191/1 22/192/74 19/190/140
f 31/184/121 16/183/137 10/193/141 28/194/126
f 16/183/137 11/186/138 12/195/142 10/193/141
f 11/186/138 9/188/139 7/196/143 12/195/142
f 9/188/139 19/190/140 6/197/144 7/196/143
f 19/190/140 22/192/74 17/198/80 6/197/144
f 28/194/126 10/193/141 3/199/145 14/200/131
f 10/193/141 12/195/142 2/201/146 3/199/145
f 12/195/142 7/196/143 1/202/147 2/201/146
f 7/196/143 6/197/144 4/203/148 1/202/147
f 6/197/144 17/198/80 18/204/86 4/203/148
f 14/200/131 3/199/145 15/205/149 20/206/136
f 3/199/145 2/201/146 5/207/150 15/205/149
f 2/201/146 1/202/147 8/208/151 5/207/150
f 1/202/147 4/203/148 13/209/152 8/208/151
f 4/203/148 18/204/86 30/210/92 13/209/152
f 20/206/136 15/205/149 33/211/62 36/212/68
f 15/205/149 5/207/150 26/213/56 33/211/62
f 5/207/150 8/208/151 23/214/50 26/213/56
f 8/208/151 13/209/152 27/215/40 23/214/50
f 13/209/152 30/210/92 35/216/37 27/215/40
