# Blender 5.1.2
# www.blender.org
mtllib asteroids_asteroid_03.mtl
o asteroid
v 0.673211 -0.673042 0.662081
v 0.751067 -0.485957 0.788020
v 0.518866 -0.518163 0.871074
v 0.466759 -0.729198 0.749298
v 0.200621 -0.575561 0.928755
v 0.183532 -0.800983 0.770097
v -0.184322 -0.609598 1.001037
v -0.134014 -0.808181 0.747795
v -0.566330 -0.586574 0.948350
v -0.455767 -0.810005 0.770019
v -0.754086 -0.445475 0.723941
v -0.640944 -0.670196 0.626403
v 0.865793 -0.211905 0.889716
v 0.569587 -0.200355 0.958451
v 0.209562 -0.208483 1.083430
v -0.226215 -0.207087 1.073371
v -0.591256 -0.201659 0.995933
v -0.779771 -0.162297 0.796268
v 0.889609 0.133760 0.921190
v 0.636306 0.188361 1.080630
v 0.218495 0.237896 1.117387
v -0.227293 0.227609 1.102306
v -0.619276 0.198115 1.038303
v -0.836953 0.173977 0.850847
v 0.756600 0.429049 0.785936
v 0.534950 0.534536 0.918510
v 0.216034 0.634756 1.104560
v -0.188210 0.576417 0.995209
v -0.531746 0.531746 0.918885
v -0.949256 0.580784 0.954511
v 0.675573 0.646259 0.708386
v 0.455182 0.763081 0.816735
v 0.170946 0.810917 0.884920
v -0.157447 0.801209 0.894880
v -0.509825 0.844609 0.891073
v -0.837100 0.837102 0.840330
v 0.790932 -0.789195 -0.700112
v 0.510899 -0.808948 -0.732649
v 0.614392 -0.614523 -0.945405
v 0.962264 -0.613850 -0.902223
v 0.219696 -0.883557 -0.817739
v 0.239782 -0.663934 -0.997314
v -0.107178 -0.916569 -0.901415
v -0.154810 -0.704127 -1.061918
v -0.452715 -0.912604 -0.906051
v -0.528372 -0.626751 -0.983581
v -0.776226 -0.913874 -0.881607
v -0.747054 -0.557772 -0.842830
v 0.745288 -0.287967 -1.103966
v 0.984303 -0.245519 -0.854869
v 0.310169 -0.309084 -1.180289
v -0.156771 -0.313486 -1.126851
v -0.500396 -0.247914 -0.956902
v -0.712215 -0.226354 -0.786838
v 0.673604 0.150963 -0.970701
v 0.915394 0.110242 -0.804156
v 0.308858 0.154137 -1.113258
v -0.128510 0.128963 -1.070131
v -0.512645 0.141178 -0.977259
v -0.729747 0.092074 -0.795223
v 0.586627 0.486097 -0.858737
v 0.834000 0.396562 -0.720732
v 0.248247 0.491649 -0.930541
v -0.140662 0.516781 -0.940117
v -0.471125 0.471198 -0.849796
v -0.664499 0.373034 -0.726032
v 0.526184 0.696890 -0.689566
v 0.742671 0.602446 -0.624315
v 0.227501 0.712059 -0.722446
v -0.091307 0.725904 -0.738962
v -0.421375 0.757750 -0.781691
v -0.597157 0.597158 -0.621160
v 0.558477 -0.902225 0.548369
v 0.790332 -0.789849 0.466132
v 0.214138 -0.978823 0.550189
v -0.176185 -1.026285 0.545349
v -0.479960 -0.885161 0.476536
v -0.698625 -0.767700 0.408414
v 0.607706 -1.012952 0.226764
v 0.896349 -0.895992 0.173915
v 0.268212 -1.220838 0.200121
v -0.211464 -1.302525 0.166598
v -0.543790 -0.993738 0.141446
v -0.779712 -0.811112 0.127309
v 0.695320 -1.147411 -0.198332
v 0.996313 -0.994764 -0.194409
v 0.250980 -1.154938 -0.244778
v -0.186522 -1.188277 -0.282371
v -0.616545 -1.128302 -0.269604
v -0.837742 -0.919074 -0.216122
v 0.592958 -0.974104 -0.509465
v 0.906064 -0.904016 -0.500731
v 0.243906 -1.035647 -0.597685
v -0.144968 -1.073654 -0.657200
v -0.526230 -1.035349 -0.635418
v -0.829754 -0.959545 -0.570549
v -0.830611 -0.514251 0.469386
v -0.981171 -0.188930 0.581000
v -1.034297 0.218418 0.610746
v -0.951834 0.593677 0.585468
v -0.747929 0.747962 0.473230
v -0.917220 -0.582173 0.168196
v -1.151422 -0.265546 0.232955
v -1.061682 0.206341 0.216552
v -0.935041 0.577689 0.198395
v -0.783764 0.783826 0.172606
v -1.028759 -0.699001 -0.228876
v -1.013562 -0.265118 -0.235734
v -1.018013 0.175595 -0.240018
v -0.898699 0.527486 -0.187789
v -0.765169 0.765196 -0.148248
v -0.923862 -0.674393 -0.620205
v -0.902421 -0.276635 -0.596783
v -0.884432 0.111862 -0.585362
v -0.795498 0.441034 -0.519106
v -0.694053 0.694053 -0.422910
v -0.609413 0.980043 0.642921
v -0.220957 1.084831 0.753056
v 0.189291 0.983452 0.655003
v 0.510798 0.844989 0.575259
v 0.765270 0.713513 0.501494
v -0.608526 1.000781 0.249062
v -0.234351 1.181371 0.353214
v 0.228766 1.013823 0.279230
v 0.599718 0.931730 0.240489
v 0.832876 0.772616 0.217919
v -0.589673 1.010709 -0.166643
v -0.193914 1.157248 -0.145924
v 0.281336 1.084302 -0.163538
v 0.614145 0.904406 -0.145875
v 0.848787 0.776822 -0.106012
v -0.478524 0.872360 -0.519350
v -0.108564 0.904072 -0.503533
v 0.280051 0.882416 -0.515543
v 0.598359 0.788521 -0.460889
v 0.811662 0.679541 -0.394264
v 0.970662 0.544093 0.612140
v 0.997408 0.171752 0.646878
v 0.992586 -0.220807 0.628838
v 0.943895 -0.577344 0.567127
v 1.009304 0.550963 0.237459
v 1.174212 0.186916 0.272557
v 1.151037 -0.252217 0.247835
v 1.169790 -0.714194 0.221203
v 1.054109 0.559755 -0.153852
v 1.358370 0.219997 -0.210674
v 1.147155 -0.249326 -0.191183
v 1.004083 -0.614048 -0.193343
v 0.961319 0.483932 -0.502528
v 1.120506 0.161666 -0.574683
v 1.027964 -0.235462 -0.538055
v 0.952627 -0.581897 -0.518161
vn 0.4431 -0.6234 0.6442
vn 0.5217 -0.5579 0.6455
vn 0.3087 -0.4808 0.8207
vn 0.3293 -0.6224 0.7101
vn 0.1454 -0.4496 0.8813
vn 0.0884 -0.6513 0.7536
vn 0.0158 -0.5030 0.8641
vn 0.0077 -0.7102 0.7040
vn -0.4692 -0.4976 0.7296
vn -0.3636 -0.7667 0.5291
vn -0.8184 -0.3769 0.4337
vn -0.7123 -0.6181 0.3324
vn 0.6365 -0.3133 0.7048
vn 0.2815 -0.2985 0.9120
vn 0.1821 -0.2754 0.9439
vn -0.0443 -0.1826 0.9822
vn -0.5024 -0.1338 0.8542
vn -0.8020 -0.1633 0.5746
vn 0.5763 0.2422 0.7805
vn 0.3286 0.1519 0.9322
vn 0.1028 0.0198 0.9945
vn -0.1122 0.0503 0.9924
vn -0.4672 0.1403 0.8729
vn -0.7347 -0.0779 0.6739
vn 0.5714 0.4998 0.6509
vn 0.4647 0.4968 0.7329
vn 0.1017 0.4671 0.8783
vn -0.1925 0.3885 0.9011
vn -0.2508 0.3199 0.9137
vn -0.6898 0.1709 0.7036
vn 0.6565 0.5557 0.5100
vn 0.5122 0.6253 0.5887
vn 0.1488 0.6477 0.7472
vn -0.1069 0.6541 0.7488
vn -0.0113 0.7520 0.6591
vn -0.4367 0.7938 0.4234
vn 0.5345 -0.7099 -0.4587
vn 0.2409 -0.7747 -0.5847
vn 0.2159 -0.5349 -0.8168
vn 0.7471 -0.3522 -0.5638
vn 0.2665 -0.7343 -0.6243
vn 0.2487 -0.6018 -0.7590
vn 0.0785 -0.7299 -0.6790
vn 0.0548 -0.4861 -0.8722
vn -0.1290 -0.6708 -0.7304
vn -0.2167 -0.2497 -0.9438
vn -0.5110 -0.5721 -0.6416
vn -0.6567 -0.1257 -0.7436
vn 0.3108 0.0471 -0.9493
vn 0.7207 -0.0283 -0.6926
vn 0.1104 -0.1396 -0.9840
vn -0.1533 -0.0948 -0.9836
vn -0.4585 0.0048 -0.8887
vn -0.6726 0.0429 -0.7388
vn 0.4475 0.3323 -0.8302
vn 0.6967 0.2178 -0.6835
vn 0.0674 0.3300 -0.9416
vn -0.2184 0.2659 -0.9389
vn -0.4937 0.1888 -0.8489
vn -0.6974 0.1672 -0.6970
vn 0.4166 0.4964 -0.7616
vn 0.6069 0.5239 -0.5977
vn 0.1173 0.5556 -0.8231
vn -0.1395 0.5530 -0.8214
vn -0.4566 0.4243 -0.7820
vn -0.6718 0.3594 -0.6477
vn 0.3950 0.6652 -0.6336
vn 0.5597 0.6577 -0.5041
vn 0.1444 0.7128 -0.6863
vn -0.0634 0.7893 -0.6107
vn -0.4324 0.6394 -0.6357
vn -0.6503 0.4231 -0.6309
vn 0.3551 -0.7588 0.5460
vn 0.4781 -0.6578 0.5820
vn 0.1260 -0.8119 0.5701
vn -0.0852 -0.7653 0.6380
vn -0.4296 -0.7553 0.4950
vn -0.6960 -0.6342 0.3367
vn 0.4025 -0.8346 0.3760
vn 0.5371 -0.8011 0.2642
vn 0.2475 -0.9227 0.2955
vn -0.2463 -0.9433 0.2227
vn -0.5813 -0.7678 0.2693
vn -0.6899 -0.6435 0.3317
vn 0.3772 -0.9248 -0.0501
vn 0.6888 -0.7045 -0.1709
vn 0.2174 -0.9618 -0.1665
vn -0.1385 -0.9542 -0.2653
vn -0.5577 -0.8185 -0.1383
vn -0.7378 -0.6681 0.0962
vn 0.2468 -0.8128 -0.5277
vn 0.7807 -0.5369 -0.3198
vn 0.1571 -0.8426 -0.5151
vn 0.0027 -0.8955 -0.4451
vn -0.3249 -0.8433 -0.4282
vn -0.7106 -0.6571 -0.2516
vn -0.8276 -0.4320 0.3583
vn -0.8463 -0.2644 0.4625
vn -0.8747 -0.1347 0.4656
vn -0.9381 0.3038 0.1660
vn -0.6831 0.7296 -0.0324
vn -0.7801 -0.5299 0.3325
vn -0.9224 -0.2952 0.2489
vn -0.9885 0.1472 0.0350
vn -0.8690 0.4902 -0.0675
vn -0.7868 0.6162 -0.0343
vn -0.8712 -0.4738 0.1287
vn -0.9856 -0.1136 -0.1252
vn -0.9390 0.2085 -0.2736
vn -0.8586 0.4410 -0.2613
vn -0.7885 0.5670 -0.2382
vn -0.9322 -0.2394 -0.2716
vn -0.8803 0.0382 -0.4728
vn -0.8423 0.1823 -0.5072
vn -0.7679 0.4169 -0.4863
vn -0.7252 0.5060 -0.4669
vn -0.3056 0.9444 0.1216
vn 0.0354 0.8955 0.4438
vn 0.2672 0.8275 0.4938
vn 0.4520 0.8139 0.3651
vn 0.5972 0.7076 0.3776
vn -0.6283 0.7772 0.0337
vn -0.0235 0.9975 0.0667
vn 0.3190 0.9395 0.1244
vn 0.4374 0.8862 0.1526
vn 0.6033 0.7806 0.1635
vn -0.5968 0.7709 -0.2227
vn -0.0779 0.9589 -0.2730
vn 0.2966 0.9284 -0.2239
vn 0.4505 0.8777 -0.1634
vn 0.6366 0.7542 -0.1610
vn -0.4787 0.7446 -0.4651
vn -0.0566 0.8598 -0.5075
vn 0.2267 0.7866 -0.5744
vn 0.4466 0.7594 -0.4733
vn 0.5682 0.7312 -0.3774
vn 0.7249 0.5154 0.4571
vn 0.8789 0.1300 0.4589
vn 0.8949 -0.2017 0.3982
vn 0.6868 -0.5023 0.5254
vn 0.8454 0.5136 0.1469
vn 0.9612 0.1031 0.2559
vn 0.9532 -0.0636 0.2955
vn 0.8769 -0.4506 0.1675
vn 0.7770 0.6172 -0.1242
vn 0.9779 0.1862 -0.0953
vn 0.9723 -0.2022 -0.1176
vn 0.9280 -0.2856 -0.2391
vn 0.6580 0.6308 -0.4113
vn 0.8171 0.1438 -0.5583
vn 0.8704 -0.3003 -0.3901
vn 0.9724 -0.1837 -0.1437
vt 0.648149 0.043270
vt 0.657265 0.083234
vt 0.614912 0.081925
vt 0.607999 0.040140
vt 0.559063 0.075633
vt 0.556545 0.029048
vt 0.493765 0.078361
vt 0.497900 0.025000
vt 0.431944 0.085616
vt 0.438260 0.036165
vt 0.380449 0.098023
vt 0.391086 0.050859
vt 0.675500 0.134705
vt 0.624369 0.137641
vt 0.561667 0.141694
vt 0.490441 0.145136
vt 0.428362 0.148133
vt 0.381492 0.151352
vt 0.680817 0.196218
vt 0.632384 0.205250
vt 0.565520 0.215135
vt 0.492825 0.216512
vt 0.427890 0.214012
vt 0.382571 0.211247
vt 0.671179 0.258057
vt 0.625672 0.270246
vt 0.566112 0.277507
vt 0.499090 0.277034
vt 0.440257 0.271696
vt 0.371424 0.280573
vt 0.661188 0.299322
vt 0.616578 0.314162
vt 0.563480 0.321767
vt 0.505072 0.317912
vt 0.446269 0.324504
vt 0.391167 0.326613
vt 0.053119 0.688160
vt 0.100990 0.681785
vt 0.090716 0.732303
vt 0.032607 0.737841
vt 0.154194 0.676654
vt 0.154597 0.723861
vt 0.212742 0.679087
vt 0.220235 0.722671
vt 0.271168 0.683814
vt 0.282840 0.733180
vt 0.324732 0.682081
vt 0.325935 0.742495
vt 0.078500 0.791541
vt 0.025000 0.799367
vt 0.147001 0.788662
vt 0.220959 0.786658
vt 0.283361 0.797213
vt 0.329186 0.801241
vt 0.082797 0.865851
vt 0.033202 0.863833
vt 0.146359 0.863173
vt 0.217868 0.859738
vt 0.282020 0.862362
vt 0.329155 0.858415
vt 0.095007 0.924201
vt 0.045156 0.916286
vt 0.153939 0.924562
vt 0.220238 0.926584
vt 0.278439 0.922363
vt 0.319748 0.910403
vt 0.098136 0.970105
vt 0.056758 0.956779
vt 0.153601 0.975000
vt 0.212456 0.974189
vt 0.270002 0.971880
vt 0.315708 0.953904
vt 0.053861 0.383547
vt 0.091807 0.368334
vt 0.087000 0.415158
vt 0.042720 0.426266
vt 0.145925 0.362124
vt 0.146134 0.409354
vt 0.206830 0.361886
vt 0.213970 0.409451
vt 0.264615 0.360354
vt 0.272341 0.410466
vt 0.309618 0.374970
vt 0.316182 0.416023
vt 0.083846 0.472580
vt 0.031751 0.482051
vt 0.144768 0.479195
vt 0.217777 0.481486
vt 0.284950 0.470575
vt 0.334133 0.464651
vt 0.079560 0.546825
vt 0.025000 0.550929
vt 0.149932 0.551276
vt 0.222002 0.550408
vt 0.290414 0.541803
vt 0.338328 0.529430
vt 0.094747 0.605308
vt 0.040486 0.606844
vt 0.155077 0.612229
vt 0.220090 0.613516
vt 0.283196 0.604178
vt 0.334429 0.590346
vt 0.106677 0.652662
vt 0.058404 0.647050
vt 0.160352 0.656782
vt 0.218196 0.661723
vt 0.276581 0.654892
vt 0.330126 0.644042
vt 0.613877 0.700793
vt 0.625371 0.746053
vt 0.580020 0.735995
vt 0.573338 0.687024
vt 0.638497 0.795688
vt 0.590294 0.797977
vt 0.640317 0.855511
vt 0.590645 0.865832
vt 0.649660 0.924736
vt 0.588656 0.928079
vt 0.633694 0.971182
vt 0.569266 0.970446
vt 0.525469 0.729867
vt 0.520850 0.684643
vt 0.529976 0.791046
vt 0.526432 0.866816
vt 0.523025 0.930848
vt 0.518220 0.973045
vt 0.456704 0.723647
vt 0.457189 0.676654
vt 0.453445 0.792903
vt 0.451386 0.865550
vt 0.457294 0.926857
vt 0.461658 0.972809
vt 0.391534 0.726864
vt 0.396266 0.677082
vt 0.390818 0.793492
vt 0.390411 0.858662
vt 0.397751 0.916826
vt 0.409977 0.964395
vt 0.344435 0.744570
vt 0.344117 0.684428
vt 0.345740 0.802511
vt 0.346710 0.858310
vt 0.355029 0.910517
vt 0.369470 0.952730
vt 0.637727 0.371764
vt 0.641964 0.422663
vt 0.597238 0.410768
vt 0.575525 0.365798
vt 0.658677 0.483752
vt 0.610135 0.475013
vt 0.651408 0.543263
vt 0.603391 0.543157
vt 0.640430 0.593536
vt 0.596367 0.601699
vt 0.628450 0.638509
vt 0.588822 0.651159
vt 0.532158 0.406588
vt 0.520732 0.360354
vt 0.548759 0.473291
vt 0.541294 0.552683
vt 0.536193 0.613562
vt 0.534426 0.660200
vt 0.464835 0.412486
vt 0.461017 0.363391
vt 0.472016 0.478978
vt 0.468239 0.554681
vt 0.469645 0.614862
vt 0.474213 0.659660
vt 0.401736 0.425788
vt 0.408952 0.375247
vt 0.402026 0.490129
vt 0.402615 0.557259
vt 0.411835 0.613822
vt 0.419628 0.655437
vt 0.353307 0.432244
vt 0.368612 0.384514
vt 0.353260 0.492933
vt 0.357594 0.552227
vt 0.368989 0.604913
vt 0.377028 0.646499
vt 0.330266 0.295556
vt 0.289809 0.309976
vt 0.290750 0.262944
vt 0.336283 0.254324
vt 0.230951 0.327420
vt 0.231852 0.278281
vt 0.169815 0.330492
vt 0.165394 0.282484
vt 0.114334 0.328015
vt 0.103706 0.278640
vt 0.073389 0.317832
vt 0.055456 0.276872
vt 0.293891 0.202586
vt 0.341562 0.199319
vt 0.227615 0.211976
vt 0.156018 0.214504
vt 0.084884 0.213535
vt 0.037920 0.218254
vt 0.290542 0.135865
vt 0.339364 0.137807
vt 0.223980 0.135984
vt 0.149039 0.142357
vt 0.086456 0.144551
vt 0.025000 0.153195
vt 0.275911 0.074401
vt 0.320297 0.083162
vt 0.214291 0.073485
vt 0.146582 0.080964
vt 0.087862 0.089444
vt 0.034915 0.097870
vt 0.263716 0.030880
vt 0.305789 0.040819
vt 0.206432 0.025000
vt 0.142582 0.028722
vt 0.080529 0.025848
vt 0.042376 0.059238
s 1
usemtl Standardmaterial.007
f 1/1/1 2/2/2 3/3/3 4/4/4
f 4/4/4 3/3/3 5/5/5 6/6/6
f 6/6/6 5/5/5 7/7/7 8/8/8
f 8/8/8 7/7/7 9/9/9 10/10/10
f 10/10/10 9/9/9 11/11/11 12/12/12
f 2/2/2 13/13/13 14/14/14 3/3/3
f 3/3/3 14/14/14 15/15/15 5/5/5
f 5/5/5 15/15/15 16/16/16 7/7/7
f 7/7/7 16/16/16 17/17/17 9/9/9
f 9/9/9 17/17/17 18/18/18 11/11/11
f 13/13/13 19/19/19 20/20/20 14/14/14
f 14/14/14 20/20/20 21/21/21 15/15/15
f 15/15/15 21/21/21 22/22/22 16/16/16
f 16/16/16 22/22/22 23/23/23 17/17/17
f 17/17/17 23/23/23 24/24/24 18/18/18
f 19/19/19 25/25/25 26/26/26 20/20/20
f 20/20/20 26/26/26 27/27/27 21/21/21
f 21/21/21 27/27/27 28/28/28 22/22/22
f 22/22/22 28/28/28 29/29/29 23/23/23
f 23/23/23 29/29/29 30/30/30 24/24/24
f 25/25/25 31/31/31 32/32/32 26/26/26
f 26/26/26 32/32/32 33/33/33 27/27/27
f 27/27/27 33/33/33 34/34/34 28/28/28
f 28/28/28 34/34/34 35/35/35 29/29/29
f 29/29/29 35/35/35 36/36/36 30/30/30
f 37/37/37 38/38/38 39/39/39 40/40/40
f 38/38/38 41/41/41 42/42/42 39/39/39
f 41/41/41 43/43/43 44/44/44 42/42/42
f 43/43/43 45/45/45 46/46/46 44/44/44
f 45/45/45 47/47/47 48/48/48 46/46/46
f 40/40/40 39/39/39 49/49/49 50/50/50
f 39/39/39 42/42/42 51/51/51 49/49/49
f 42/42/42 44/44/44 52/52/52 51/51/51
f 44/44/44 46/46/46 53/53/53 52/52/52
f 46/46/46 48/48/48 54/54/54 53/53/53
f 50/50/50 49/49/49 55/55/55 56/56/56
f 49/49/49 51/51/51 57/57/57 55/55/55
f 51/51/51 52/52/52 58/58/58 57/57/57
f 52/52/52 53/53/53 59/59/59 58/58/58
f 53/53/53 54/54/54 60/60/60 59/59/59
f 56/56/56 55/55/55 61/61/61 62/62/62
f 55/55/55 57/57/57 63/63/63 61/61/61
f 57/57/57 58/58/58 64/64/64 63/63/63
f 58/58/58 59/59/59 65/65/65 64/64/64
f 59/59/59 60/60/60 66/66/66 65/65/65
f 62/62/62 61/61/61 67/67/67 68/68/68
f 61/61/61 63/63/63 69/69/69 67/67/67
f 63/63/63 64/64/64 70/70/70 69/69/69
f 64/64/64 65/65/65 71/71/71 70/70/70
f 65/65/65 66/66/66 72/72/72 71/71/71
f 1/73/1 4/74/4 73/75/73 74/76/74
f 4/74/4 6/77/6 75/78/75 73/75/73
f 6/77/6 8/79/8 76/80/76 75/78/75
f 8/79/8 10/81/10 77/82/77 76/80/76
f 10/81/10 12/83/12 78/84/78 77/82/77
f 74/76/74 73/75/73 79/85/79 80/86/80
f 73/75/73 75/78/75 81/87/81 79/85/79
f 75/78/75 76/80/76 82/88/82 81/87/81
f 76/80/76 77/82/77 83/89/83 82/88/82
f 77/82/77 78/84/78 84/90/84 83/89/83
f 80/86/80 79/85/79 85/91/85 86/92/86
f 79/85/79 81/87/81 87/93/87 85/91/85
f 81/87/81 82/88/82 88/94/88 87/93/87
f 82/88/82 83/89/83 89/95/89 88/94/88
f 83/89/83 84/90/84 90/96/90 89/95/89
f 86/92/86 85/91/85 91/97/91 92/98/92
f 85/91/85 87/93/87 93/99/93 91/97/91
f 87/93/87 88/94/88 94/100/94 93/99/93
f 88/94/88 89/95/89 95/101/95 94/100/94
f 89/95/89 90/96/90 96/102/96 95/101/95
f 92/98/92 91/97/91 38/103/38 37/104/37
f 91/97/91 93/99/93 41/105/41 38/103/38
f 93/99/93 94/100/94 43/106/43 41/105/41
f 94/100/94 95/101/95 45/107/45 43/106/43
f 95/101/95 96/102/96 47/108/47 45/107/45
f 12/109/12 11/110/11 97/111/97 78/112/78
f 11/110/11 18/113/18 98/114/98 97/111/97
f 18/113/18 24/115/24 99/116/99 98/114/98
f 24/115/24 30/117/30 100/118/100 99/116/99
f 30/117/30 36/119/36 101/120/101 100/118/100
f 78/112/78 97/111/97 102/121/102 84/122/84
f 97/111/97 98/114/98 103/123/103 102/121/102
f 98/114/98 99/116/99 104/124/104 103/123/103
f 99/116/99 100/118/100 105/125/105 104/124/104
f 100/118/100 101/120/101 106/126/106 105/125/105
f 84/122/84 102/121/102 107/127/107 90/128/90
f 102/121/102 103/123/103 108/129/108 107/127/107
f 103/123/103 104/124/104 109/130/109 108/129/108
f 104/124/104 105/125/105 110/131/110 109/130/109
f 105/125/105 106/126/106 111/132/111 110/131/110
f 90/128/90 107/127/107 112/133/112 96/134/96
f 107/127/107 108/129/108 113/135/113 112/133/112
f 108/129/108 109/130/109 114/136/114 113/135/113
f 109/130/109 110/131/110 115/137/115 114/136/114
f 110/131/110 111/132/111 116/138/116 115/137/115
f 96/134/96 112/133/112 48/139/48 47/140/47
f 112/133/112 113/135/113 54/141/54 48/139/48
f 113/135/113 114/136/114 60/142/60 54/141/54
f 114/136/114 115/137/115 66/143/66 60/142/60
f 115/137/115 116/138/116 72/144/72 66/143/66
f 36/145/36 35/146/35 117/147/117 101/148/101
f 35/146/35 34/149/34 118/150/118 117/147/117
f 34/149/34 33/151/33 119/152/119 118/150/118
f 33/151/33 32/153/32 120/154/120 119/152/119
f 32/153/32 31/155/31 121/156/121 120/154/120
f 101/148/101 117/147/117 122/157/122 106/158/106
f 117/147/117 118/150/118 123/159/123 122/157/122
f 118/150/118 119/152/119 124/160/124 123/159/123
f 119/152/119 120/154/120 125/161/125 124/160/124
f 120/154/120 121/156/121 126/162/126 125/161/125
f 106/158/106 122/157/122 127/163/127 111/164/111
f 122/157/122 123/159/123 128/165/128 127/163/127
f 123/159/123 124/160/124 129/166/129 128/165/128
f 124/160/124 125/161/125 130/167/130 129/166/129
f 125/161/125 126/162/126 131/168/131 130/167/130
f 111/164/111 127/163/127 132/169/132 116/170/116
f 127/163/127 128/165/128 133/171/133 132/169/132
f 128/165/128 129/166/129 134/172/134 133/171/133
f 129/166/129 130/167/130 135/173/135 134/172/134
f 130/167/130 131/168/131 136/174/136 135/173/135
f 116/170/116 132/169/132 71/175/71 72/176/72
f 132/169/132 133/171/133 70/177/70 71/175/71
f 133/171/133 134/172/134 69/178/69 70/177/70
f 134/172/134 135/173/135 67/179/67 69/178/69
f 135/173/135 136/174/136 68/180/68 67/179/67
f 31/181/31 25/182/25 137/183/137 121/184/121
f 25/182/25 19/185/19 138/186/138 137/183/137
f 19/185/19 13/187/13 139/188/139 138/186/138
f 13/187/13 2/189/2 140/190/140 139/188/139
f 2/189/2 1/191/1 74/192/74 140/190/140
f 121/184/121 137/183/137 141/193/141 126/194/126
f 137/183/137 138/186/138 142/195/142 141/193/141
f 138/186/138 139/188/139 143/196/143 142/195/142
f 139/188/139 140/190/140 144/197/144 143/196/143
f 140/190/140 74/192/74 80/198/80 144/197/144
f 126/194/126 141/193/141 145/199/145 131/200/131
f 141/193/141 142/195/142 146/201/146 145/199/145
f 142/195/142 143/196/143 147/202/147 146/201/146
f 143/196/143 144/197/144 148/203/148 147/202/147
f 144/197/144 80/198/80 86/204/86 148/203/148
f 131/200/131 145/199/145 149/205/149 136/206/136
f 145/199/145 146/201/146 150/207/150 149/205/149
f 146/201/146 147/202/147 151/208/151 150/207/150
f 147/202/147 148/203/148 152/209/152 151/208/151
f 148/203/148 86/204/86 92/210/92 152/209/152
f 136/206/136 149/205/149 62/211/62 68/212/68
f 149/205/149 150/207/150 56/213/56 62/211/62
f 150/207/150 151/208/151 50/214/50 56/213/56
f 151/208/151 152/209/152 40/215/40 50/214/50
f 152/209/152 92/210/92 37/216/37 40/215/40
