# Blender 5.1.2
# www.blender.org
mtllib asteroids_asteroid_04.mtl
o asteroid
v 0.851512 -0.852161 0.763434
v 0.918058 -0.598961 0.887060
v 0.663048 -0.663554 0.979555
v 0.596989 -0.919583 0.807781
v 0.282077 -0.702121 1.024020
v 0.286781 -0.929422 0.897285
v -0.124891 -0.682593 1.039104
v -0.056973 -0.941807 0.871013
v -0.436055 -0.634955 0.943420
v -0.334163 -0.887609 0.808617
v -0.659255 -0.570654 0.849768
v -0.534768 -0.818535 0.768845
v 0.934245 -0.277488 0.949750
v 0.703579 -0.278086 1.087223
v 0.304245 -0.304448 1.212603
v -0.162768 -0.268160 1.196327
v -0.525736 -0.258369 1.066432
v -0.775359 -0.239967 0.899198
v 0.925619 0.071305 0.948313
v 0.688633 0.138605 1.169572
v 0.268677 0.169456 1.253475
v -0.198474 0.198151 1.247120
v -0.545767 0.150201 1.137946
v -0.776736 0.110536 0.936755
v 0.877709 0.346268 0.918808
v 0.633544 0.463340 1.081520
v 0.260712 0.523592 1.215066
v -0.151372 0.551246 1.152854
v -0.475775 0.475401 1.044659
v -0.680234 0.381900 0.876054
v 0.825898 0.533494 0.832705
v 0.538184 0.671916 0.983948
v 0.224604 0.731470 1.033647
v -0.115084 0.759674 0.956345
v -0.382042 0.682172 0.911006
v -0.582953 0.582745 0.822181
v 0.867050 -0.867127 -0.645189
v 0.662524 -0.918788 -0.766808
v 0.707658 -0.707850 -0.857150
v 0.915055 -0.660980 -0.687233
v 0.351684 -0.948933 -0.791937
v 0.360729 -0.742066 -1.010245
v 0.005800 -0.951423 -0.812304
v -0.040827 -0.721093 -1.003409
v -0.279846 -0.886082 -0.777267
v -0.403635 -0.651411 -0.893142
v -0.553697 -0.785620 -0.632068
v -0.656523 -0.533898 -0.728080
v 0.732371 -0.363972 -0.934798
v 0.954151 -0.357085 -0.739459
v 0.402357 -0.402904 -1.139837
v -0.062203 -0.330972 -1.125329
v -0.486369 -0.276174 -0.965082
v -0.740522 -0.219814 -0.806977
v 0.711834 0.044909 -0.891544
v 0.956681 -0.019617 -0.749993
v 0.340074 0.075218 -1.074097
v -0.136737 0.136352 -1.073966
v -0.496267 0.124932 -0.909252
v -0.726267 0.119981 -0.775510
v 0.658677 0.424533 -0.741026
v 0.882995 0.302000 -0.650422
v 0.297501 0.519862 -0.837135
v -0.119453 0.501848 -0.894866
v -0.462621 0.462481 -0.796221
v -0.687440 0.409571 -0.700422
v 0.544153 0.670379 -0.595054
v 0.794014 0.556515 -0.559317
v 0.228605 0.763888 -0.648261
v -0.112820 0.725196 -0.727385
v -0.413127 0.684737 -0.663102
v -0.623514 0.623244 -0.572637
v 0.650476 -1.089039 0.535925
v 0.905671 -0.906319 0.482430
v 0.300862 -1.157977 0.672503
v -0.113975 -1.128443 0.632319
v -0.462367 -1.039977 0.602010
v -0.670080 -0.898488 0.530299
v 0.770005 -1.169059 0.210513
v 1.040507 -1.040799 0.168267
v 0.367515 -1.388352 0.259718
v -0.086730 -1.262557 0.214096
v -0.434344 -1.145698 0.265677
v -0.685557 -0.931376 0.217079
v 0.841796 -1.209692 -0.188290
v 1.067322 -1.067641 -0.170892
v 0.437007 -1.337270 -0.197819
v -0.030813 -1.264927 -0.247603
v -0.397629 -1.111271 -0.146697
v -0.632869 -0.893675 -0.118232
v 0.738624 -1.070681 -0.571312
v 0.953069 -0.953394 -0.465457
v 0.372583 -1.143831 -0.551542
v -0.041375 -1.124585 -0.587759
v -0.380547 -1.025818 -0.508170
v -0.612007 -0.872092 -0.409507
v -0.758482 -0.598766 0.639154
v -0.880211 -0.246236 0.663915
v -0.913629 0.164563 0.685251
v -0.802094 0.502769 0.604874
v -0.692443 0.692302 0.571221
v -0.858130 -0.687970 0.276044
v -0.945681 -0.271352 0.290233
v -1.052098 0.194234 0.254269
v -0.908404 0.571200 0.239072
v -0.770309 0.769978 0.242234
v -0.844745 -0.642169 -0.136935
v -0.996733 -0.269541 -0.173197
v -1.068999 0.189920 -0.204599
v -0.935356 0.607404 -0.171684
v -0.803821 0.803543 -0.093438
v -0.798257 -0.615225 -0.467829
v -0.899786 -0.288848 -0.564386
v -0.909879 0.116973 -0.549169
v -0.827440 0.483015 -0.508392
v -0.719486 0.719015 -0.374419
v -0.495585 0.799798 0.679786
v -0.146080 0.910433 0.721427
v 0.281218 0.890762 0.772922
v 0.627424 0.752229 0.724024
v 0.892309 0.653778 0.596795
v -0.565973 0.904620 0.325048
v -0.196689 1.041192 0.316441
v 0.266855 0.930435 0.386830
v 0.681449 0.871850 0.377410
v 0.937441 0.710643 0.303439
v -0.617459 0.927528 -0.085442
v -0.198468 1.070227 -0.148970
v 0.248625 1.017845 -0.081681
v 0.619828 0.841845 -0.031284
v 0.927028 0.624141 -0.035394
v -0.486237 0.827881 -0.426349
v -0.127483 0.919101 -0.505199
v 0.271102 0.870553 -0.452247
v 0.611986 0.775727 -0.381866
v 0.837526 0.616976 -0.344371
v 1.041474 0.450845 0.640447
v 1.142945 0.119632 0.697478
v 1.154745 -0.303760 0.714683
v 1.093808 -0.648580 0.652167
v 1.145533 0.464029 0.297733
v 1.271633 0.098631 0.318412
v 1.388227 -0.372848 0.331484
v 1.169611 -0.770826 0.287532
v 1.134663 0.385912 -0.110750
v 1.246179 0.025522 -0.145648
v 1.329934 -0.444417 -0.129287
v 1.209353 -0.842786 -0.129549
v 1.007973 0.394828 -0.459091
v 1.142188 0.014031 -0.527828
v 1.146631 -0.389886 -0.508935
v 1.068838 -0.741544 -0.459152
vn 0.4383 -0.6722 0.5968
vn 0.5236 -0.3386 0.7817
vn 0.2626 -0.3913 0.8820
vn 0.2580 -0.7357 0.6262
vn 0.0876 -0.4513 0.8881
vn 0.0889 -0.6628 0.7435
vn -0.1638 -0.4697 0.8675
vn -0.1643 -0.6310 0.7582
vn -0.3520 -0.4665 0.8115
vn -0.3171 -0.6213 0.7166
vn -0.5892 -0.4618 0.6631
vn -0.4600 -0.5732 0.6781
vn 0.6018 -0.0837 0.7943
vn 0.3389 -0.1609 0.9270
vn 0.1058 -0.2474 0.9631
vn -0.1769 -0.2581 0.9498
vn -0.4217 -0.2607 0.8684
vn -0.7200 -0.2479 0.6482
vn 0.7050 0.1102 0.7006
vn 0.4486 0.0849 0.8897
vn 0.1195 0.0343 0.9922
vn -0.1820 0.0450 0.9823
vn -0.4876 0.0842 0.8690
vn -0.7620 0.1333 0.6337
vn 0.7449 0.3242 0.5831
vn 0.4932 0.3815 0.7818
vn 0.1283 0.4103 0.9029
vn -0.2034 0.4510 0.8690
vn -0.5200 0.4905 0.6993
vn -0.7012 0.4543 0.5495
vn 0.6754 0.5422 0.4998
vn 0.4634 0.6467 0.6059
vn 0.1225 0.7272 0.6755
vn -0.2070 0.7450 0.6342
vn -0.4805 0.6812 0.5523
vn -0.6388 0.5779 0.5078
vn 0.6228 -0.4171 -0.6619
vn 0.3601 -0.5373 -0.7626
vn 0.4401 -0.2918 -0.8492
vn 0.6597 -0.2808 -0.6971
vn 0.0753 -0.6813 -0.7281
vn 0.1391 -0.4461 -0.8841
vn -0.1327 -0.7255 -0.6753
vn -0.1438 -0.5245 -0.8392
vn -0.4410 -0.6394 -0.6298
vn -0.4426 -0.4662 -0.7660
vn -0.6172 -0.5901 -0.5204
vn -0.6608 -0.4708 -0.5846
vn 0.5686 -0.0892 -0.8178
vn 0.7063 -0.1286 -0.6961
vn 0.2334 -0.0877 -0.9684
vn -0.1872 -0.1215 -0.9748
vn -0.4617 -0.1082 -0.8804
vn -0.7037 -0.1460 -0.6954
vn 0.5464 0.2117 -0.8103
vn 0.6813 0.1708 -0.7118
vn 0.2598 0.2890 -0.9214
vn -0.1785 0.2801 -0.9432
vn -0.4381 0.2272 -0.8698
vn -0.6640 0.1712 -0.7279
vn 0.4665 0.4488 -0.7622
vn 0.6225 0.4714 -0.6247
vn 0.2353 0.5293 -0.8152
vn -0.1370 0.5387 -0.8313
vn -0.4011 0.4674 -0.7878
vn -0.5627 0.4295 -0.7064
vn 0.4491 0.6377 -0.6258
vn 0.5947 0.6073 -0.5268
vn 0.2368 0.7015 -0.6722
vn -0.0895 0.7011 -0.7074
vn -0.3763 0.6514 -0.6588
vn -0.4741 0.6102 -0.6347
vn 0.3444 -0.8408 0.4178
vn 0.5537 -0.7059 0.4418
vn 0.0903 -0.8439 0.5289
vn -0.1741 -0.8257 0.5365
vn -0.3884 -0.7949 0.4662
vn -0.6892 -0.6003 0.4058
vn 0.4604 -0.8393 0.2890
vn 0.6456 -0.7029 0.2984
vn 0.1174 -0.9673 0.2250
vn -0.2435 -0.9586 0.1479
vn -0.4668 -0.8805 0.0825
vn -0.7819 -0.6233 -0.0093
vn 0.4486 -0.8803 -0.1545
vn 0.7041 -0.6865 -0.1815
vn 0.1179 -0.9672 -0.2249
vn -0.2818 -0.9264 -0.2498
vn -0.5290 -0.8305 -0.1746
vn -0.7273 -0.6689 -0.1539
vn 0.3830 -0.7558 -0.5311
vn 0.6569 -0.5309 -0.5354
vn 0.0851 -0.8368 -0.5409
vn -0.2206 -0.8217 -0.5256
vn -0.5349 -0.7266 -0.4312
vn -0.6969 -0.6434 -0.3168
vn -0.8516 -0.3854 0.3554
vn -0.9162 -0.2086 0.3421
vn -0.9185 0.1592 0.3619
vn -0.7930 0.4408 0.4204
vn -0.6672 0.6081 0.4303
vn -0.9343 -0.3542 0.0411
vn -0.9672 -0.2117 0.1404
vn -0.9807 0.1088 0.1622
vn -0.8678 0.4571 0.1950
vn -0.7070 0.6705 0.2250
vn -0.8829 -0.4515 -0.1287
vn -0.9657 -0.2454 -0.0852
vn -0.9866 0.0749 -0.1450
vn -0.8525 0.4838 -0.1981
vn -0.6720 0.7247 -0.1522
vn -0.7978 -0.5177 -0.3092
vn -0.8925 -0.2438 -0.3795
vn -0.8747 0.0969 -0.4749
vn -0.7124 0.4474 -0.5407
vn -0.5392 0.6764 -0.5018
vn -0.4512 0.7785 0.4362
vn -0.1749 0.8806 0.4405
vn 0.1483 0.9119 0.3826
vn 0.4231 0.8331 0.3564
vn 0.6613 0.6535 0.3683
vn -0.4649 0.8570 0.2222
vn -0.1124 0.9724 0.2044
vn 0.1907 0.9688 0.1580
vn 0.3834 0.9156 0.1212
vn 0.6467 0.7596 0.0688
vn -0.4622 0.8758 -0.1391
vn -0.0822 0.9842 -0.1570
vn 0.2509 0.9616 -0.1115
vn 0.4261 0.8977 -0.1122
vn 0.6353 0.7514 -0.1784
vn -0.4075 0.7800 -0.4749
vn -0.0859 0.8576 -0.5071
vn 0.2813 0.8416 -0.4610
vn 0.4805 0.7918 -0.3771
vn 0.6283 0.7150 -0.3065
vn 0.8329 0.3969 0.3856
vn 0.8729 0.1501 0.4642
vn 0.8227 -0.0891 0.5615
vn 0.7228 -0.4037 0.5609
vn 0.8692 0.4902 0.0645
vn 0.9653 0.2368 0.1101
vn 0.9731 -0.1195 0.1969
vn 0.8268 -0.4945 0.2679
vn 0.8421 0.4979 -0.2071
vn 0.9469 0.2585 -0.1911
vn 0.9705 -0.0902 -0.2235
vn 0.8814 -0.4259 -0.2043
vn 0.7620 0.5215 -0.3838
vn 0.8542 0.2076 -0.4767
vn 0.8520 -0.0957 -0.5147
vn 0.7739 -0.3247 -0.5438
vt 0.045247 0.360666
vt 0.094308 0.353973
vt 0.085890 0.400374
vt 0.033051 0.405059
vt 0.075346 0.464791
vt 0.032057 0.461941
vt 0.076653 0.534041
vt 0.025000 0.524407
vt 0.080120 0.589916
vt 0.030420 0.577342
vt 0.087470 0.632014
vt 0.041662 0.613822
vt 0.151542 0.350117
vt 0.152914 0.394915
vt 0.146926 0.463356
vt 0.148705 0.539252
vt 0.146472 0.601997
vt 0.145033 0.652259
vt 0.215289 0.348970
vt 0.222545 0.402721
vt 0.223093 0.471517
vt 0.223945 0.546043
vt 0.214136 0.603102
vt 0.207589 0.653285
vt 0.266865 0.358551
vt 0.278187 0.410413
vt 0.279876 0.475161
vt 0.282665 0.542031
vt 0.270126 0.597932
vt 0.259965 0.643905
vt 0.304368 0.364444
vt 0.318148 0.424123
vt 0.324931 0.481758
vt 0.330210 0.544622
vt 0.313780 0.592297
vt 0.298218 0.631385
vt 0.360347 0.633676
vt 0.356164 0.591960
vt 0.394930 0.596798
vt 0.396655 0.642408
vt 0.345201 0.536828
vt 0.393568 0.534363
vt 0.346197 0.472539
vt 0.396015 0.468875
vt 0.359177 0.419954
vt 0.406186 0.406491
vt 0.372214 0.364450
vt 0.421818 0.354410
vt 0.453779 0.602421
vt 0.451337 0.650601
vt 0.448979 0.542075
vt 0.461268 0.470315
vt 0.471056 0.397984
vt 0.482124 0.348970
vt 0.522222 0.605398
vt 0.512184 0.652678
vt 0.524013 0.538203
vt 0.535507 0.462562
vt 0.538785 0.399555
vt 0.543465 0.355898
vt 0.590779 0.603577
vt 0.573103 0.646141
vt 0.604930 0.539835
vt 0.599713 0.468932
vt 0.598078 0.408798
vt 0.595306 0.366702
vt 0.641200 0.591318
vt 0.620859 0.634726
vt 0.656820 0.533712
vt 0.645547 0.470715
vt 0.642042 0.415864
vt 0.638519 0.375166
vt 0.632972 0.045004
vt 0.640802 0.090773
vt 0.586365 0.089463
vt 0.583856 0.036038
vt 0.660122 0.147173
vt 0.607934 0.149754
vt 0.655127 0.211173
vt 0.604185 0.219394
vt 0.646308 0.263111
vt 0.600965 0.278954
vt 0.641728 0.300496
vt 0.596897 0.322347
vt 0.528916 0.074173
vt 0.520324 0.025000
vt 0.534456 0.146142
vt 0.531816 0.219172
vt 0.543092 0.276374
vt 0.540257 0.331588
vt 0.461865 0.071115
vt 0.459778 0.027845
vt 0.464758 0.138366
vt 0.456630 0.213981
vt 0.473956 0.278249
vt 0.477223 0.332062
vt 0.395092 0.089680
vt 0.403667 0.045771
vt 0.401360 0.151387
vt 0.398386 0.220635
vt 0.411659 0.279371
vt 0.423471 0.327507
vt 0.353020 0.098806
vt 0.368710 0.058918
vt 0.349948 0.155269
vt 0.351057 0.217787
vt 0.358370 0.269997
vt 0.380335 0.321953
vt 0.692670 0.362290
vt 0.741363 0.356398
vt 0.738340 0.396010
vt 0.684373 0.410680
vt 0.802101 0.353581
vt 0.800630 0.396587
vt 0.864487 0.348970
vt 0.869230 0.397021
vt 0.916679 0.357128
vt 0.929021 0.409898
vt 0.956116 0.364400
vt 0.966223 0.413727
vt 0.724104 0.459264
vt 0.674377 0.465028
vt 0.792965 0.458924
vt 0.869219 0.469990
vt 0.934349 0.473834
vt 0.974436 0.473118
vt 0.726997 0.528674
vt 0.671811 0.526653
vt 0.792127 0.535448
vt 0.865674 0.542084
vt 0.935480 0.541839
vt 0.975000 0.533275
vt 0.730041 0.584936
vt 0.676315 0.579750
vt 0.786045 0.600797
vt 0.852653 0.601900
vt 0.915356 0.600587
vt 0.962415 0.586162
vt 0.735013 0.636721
vt 0.687438 0.621579
vt 0.792705 0.649991
vt 0.853574 0.650162
vt 0.906594 0.641328
vt 0.948648 0.625686
vt 0.287296 0.962914
vt 0.245174 0.967555
vt 0.264560 0.924030
vt 0.305781 0.915544
vt 0.194390 0.964485
vt 0.203316 0.918595
vt 0.132865 0.967671
vt 0.132661 0.916180
vt 0.079900 0.952006
vt 0.072214 0.903925
vt 0.025384 0.926993
vt 0.025587 0.879882
vt 0.280362 0.863686
vt 0.322635 0.857565
vt 0.218200 0.851177
vt 0.140454 0.853769
vt 0.073868 0.842137
vt 0.025000 0.826024
vt 0.295968 0.797020
vt 0.332290 0.798703
vt 0.227009 0.778128
vt 0.155589 0.777471
vt 0.089329 0.774643
vt 0.027015 0.762983
vt 0.284987 0.734702
vt 0.328009 0.745200
vt 0.224677 0.716066
vt 0.157434 0.711858
vt 0.097236 0.714581
vt 0.050646 0.710397
vt 0.283938 0.686383
vt 0.321229 0.704293
vt 0.231108 0.668277
vt 0.167944 0.675266
vt 0.108729 0.674224
vt 0.060773 0.672009
vt 0.042340 0.299054
vt 0.030252 0.263871
vt 0.086082 0.277186
vt 0.085297 0.319907
vt 0.025000 0.213321
vt 0.080284 0.219618
vt 0.025360 0.149282
vt 0.078496 0.149296
vt 0.039604 0.091190
vt 0.088914 0.091241
vt 0.059005 0.044747
vt 0.108005 0.033888
vt 0.145516 0.281313
vt 0.138825 0.333978
vt 0.144996 0.219968
vt 0.148033 0.144990
vt 0.151528 0.074053
vt 0.172245 0.025000
vt 0.214094 0.274412
vt 0.203285 0.327709
vt 0.220930 0.213398
vt 0.218605 0.136882
vt 0.221477 0.070861
vt 0.232656 0.028739
vt 0.275266 0.282173
vt 0.262543 0.331214
vt 0.284737 0.215153
vt 0.285163 0.148395
vt 0.280677 0.087534
vt 0.287792 0.047552
vt 0.315936 0.274569
vt 0.301254 0.321349
vt 0.332826 0.215204
vt 0.334956 0.153502
vt 0.327750 0.097783
vt 0.322315 0.060363
s 1
usemtl wire_115115115.003
f 1/1/1 2/2/2 3/3/3 4/4/4
f 4/4/4 3/3/3 5/5/5 6/6/6
f 6/6/6 5/5/5 7/7/7 8/8/8
f 8/8/8 7/7/7 9/9/9 10/10/10
f 10/10/10 9/9/9 11/11/11 12/12/12
f 2/2/2 13/13/13 14/14/14 3/3/3
f 3/3/3 14/14/14 15/15/15 5/5/5
f 5/5/5 15/15/15 16/16/16 7/7/7
f 7/7/7 16/16/16 17/17/17 9/9/9
f 9/9/9 17/17/17 18/18/18 11/11/11
f 13/13/13 19/19/19 20/20/20 14/14/14
f 14/14/14 20/20/20 21/21/21 15/15/15
f 15/15/15 21/21/21 22/22/22 16/16/16
f 16/16/16 22/22/22 23/23/23 17/17/17
f 17/17/17 23/23/23 24/24/24 18/18/18
f 19/19/19 25/25/25 26/26/26 20/20/20
f 20/20/20 26/26/26 27/27/27 21/21/21
f 21/21/21 27/27/27 28/28/28 22/22/22
f 22/22/22 28/28/28 29/29/29 23/23/23
f 23/23/23 29/29/29 30/30/30 24/24/24
f 25/25/25 31/31/31 32/32/32 26/26/26
f 26/26/26 32/32/32 33/33/33 27/27/27
f 27/27/27 33/33/33 34/34/34 28/28/28
f 28/28/28 34/34/34 35/35/35 29/29/29
f 29/29/29 35/35/35 36/36/36 30/30/30
f 37/37/37 38/38/38 39/39/39 40/40/40
f 38/38/38 41/41/41 42/42/42 39/39/39
f 41/41/41 43/43/43 44/44/44 42/42/42
f 43/43/43 45/45/45 46/46/46 44/44/44
f 45/45/45 47/47/47 48/48/48 46/46/46
f 40/40/40 39/39/39 49/49/49 50/50/50
f 39/39/39 42/42/42 51/51/51 49/49/49
f 42/42/42 44/44/44 52/52/52 51/51/51
f 44/44/44 46/46/46 53/53/53 52/52/52
f 46/46/46 48/48/48 54/54/54 53/53/53
f 50/50/50 49/49/49 55/55/55 56/56/56
f 49/49/49 51/51/51 57/57/57 55/55/55
f 51/51/51 52/52/52 58/58/58 57/57/57
f 52/52/52 53/53/53 59/59/59 58/58/58
f 53/53/53 54/54/54 60/60/60 59/59/59
f 56/56/56 55/55/55 61/61/61 62/62/62
f 55/55/55 57/57/57 63/63/63 61/61/61
f 57/57/57 58/58/58 64/64/64 63/63/63
f 58/58/58 59/59/59 65/65/65 64/64/64
f 59/59/59 60/60/60 66/66/66 65/65/65
f 62/62/62 61/61/61 67/67/67 68/68/68
f 61/61/61 63/63/63 69/69/69 67/67/67
f 63/63/63 64/64/64 70/70/70 69/69/69
f 64/64/64 65/65/65 71/71/71 70/70/70
f 65/65/65 66/66/66 72/72/72 71/71/71
f 1/73/1 4/74/4 73/75/73 74/76/74
f 4/74/4 6/77/6 75/78/75 73/75/73
f 6/77/6 8/79/8 76/80/76 75/78/75
f 8/79/8 10/81/10 77/82/77 76/80/76
f 10/81/10 12/83/12 78/84/78 77/82/77
f 74/76/74 73/75/73 79/85/79 80/86/80
f 73/75/73 75/78/75 81/87/81 79/85/79
f 75/78/75 76/80/76 82/88/82 81/87/81
f 76/80/76 77/82/77 83/89/83 82/88/82
f 77/82/77 78/84/78 84/90/84 83/89/83
f 80/86/80 79/85/79 85/91/85 86/92/86
f 79/85/79 81/87/81 87/93/87 85/91/85
f 81/87/81 82/88/82 88/94/88 87/93/87
f 82/88/82 83/89/83 89/95/89 88/94/88
f 83/89/83 84/90/84 90/96/90 89/95/89
f 86/92/86 85/91/85 91/97/91 92/98/92
f 85/91/85 87/93/87 93/99/93 91/97/91
f 87/93/87 88/94/88 94/100/94 93/99/93
f 88/94/88 89/95/89 95/101/95 94/100/94
f 89/95/89 90/96/90 96/102/96 95/101/95
f 92/98/92 91/97/91 38/103/38 37/104/37
f 91/97/91 93/99/93 41/105/41 38/103/38
f 93/99/93 94/100/94 43/106/43 41/105/41
f 94/100/94 95/101/95 45/107/45 43/106/43
f 95/101/95 96/102/96 47/108/47 45/107/45
f 12/109/12 11/110/11 97/111/97 78/112/78
f 11/110/11 18/113/18 98/114/98 97/111/97
f 18/113/18 24/115/24 99/116/99 98/114/98
f 24/115/24 30/117/30 100/118/100 99/116/99
f 30/117/30 36/119/36 101/120/101 100/118/100
f 78/112/78 97/111/97 102/121/102 84/122/84
f 97/111/97 98/114/98 103/123/103 102/121/102
f 98/114/98 99/116/99 104/124/104 103/123/103
f 99/116/99 100/118/100 105/125/105 104/124/104
f 100/118/100 101/120/101 106/126/106 105/125/105
f 84/122/84 102/121/102 107/127/107 90/128/90
f 102/121/102 103/123/103 108/129/108 107/127/107
f 103/123/103 104/124/104 109/130/109 108/129/108
f 104/124/104 105/125/105 110/131/110 109/130/109
f 105/125/105 106/126/106 111/132/111 110/131/110
f 90/128/90 107/127/107 112/133/112 96/134/96
f 107/127/107 108/129/108 113/135/113 112/133/112
f 108/129/108 109/130/109 114/136/114 113/135/113
f 109/130/109 110/131/110 115/137/115 114/136/114
f 110/131/110 111/132/111 116/138/116 115/137/115
f 96/134/96 112/133/112 48/139/48 47/140/47
f 112/133/112 113/135/113 54/141/54 48/139/48
f 113/135/113 114/136/114 60/142/60 54/141/54
f 114/136/114 115/137/115 66/143/66 60/142/60
f 115/137/115 116/138/116 72/144/72 66/143/66
f 36/145/36 35/146/35 117/147/117 101/148/101
f 35/146/35 34/149/34 118/150/118 117/147/117
f 34/149/34 33/151/33 119/152/119 118/150/118
f 33/151/33 32/153/32 120/154/120 119/152/119
f 32/153/32 31/155/31 121/156/121 120/154/120
f 101/148/101 117/147/117 122/157/122 106/158/106
f 117/147/117 118/150/118 123/159/123 122/157/122
f 118/150/118 119/152/119 124/160/124 123/159/123
f 119/152/119 120/154/120 125/161/125 124/160/124
f 120/154/120 121/156/121 126/162/126 125/161/125
f 106/158/106 122/157/122 127/163/127 111/164/111
f 122/157/122 123/159/123 128/165/128 127/163/127
f 123/159/123 124/160/124 129/166/129 128/165/128
f 124/160/124 125/161/125 130/167/130 129/166/129
f 125/161/125 126/162/126 131/168/131 130/167/130
f 111/164/111 127/163/127 132/169/132 116/170/116
f 127/163/127 128/165/128 133/171/133 132/169/132
f 128/165/128 129/166/129 134/172/134 133/171/133
f 129/166/129 130/167/130 135/173/135 134/172/134
f 130/167/130 131/168/131 136/174/136 135/173/135
f 116/170/116 132/169/132 71/175/71 72/176/72
f 132/169/132 133/171/133 70/177/70 71/175/71
f 133/171/133 134/172/134 69/178/69 70/177/70
f 134/172/134 135/173/135 67/179/67 69/178/69
f 135/173/135 136/174/136 68/180/68 67/179/67
f 31/181/31 25/182/25 137/183/137 121/184/121
f 25/182/25 19/185/19 138/186/138 137/183/137
f 19/185/19 13/187/13 139/188/139 138/186/138
f 13/187/13 2/189/2 140/190/140 139/188/139
f 2/189/2 1/191/1 74/192/74 140/190/140
f 121/184/121 137/183/137 141/193/141 126/194/126
f 137/183/137 138/186/138 142/195/142 141/193/141
f 138/186/138 139/188/139 143/196/143 142/195/142
f 139/188/139 140/190/140 144/197/144 143/196/143
f 140/190/140 74/192/74 80/198/80 144/197/144
f 126/194/126 141/193/141 145/199/145 131/200/131
f 141/193/141 142/195/142 146/201/146 145/199/145
f 142/195/142 143/196/143 147/202/147 146/201/146
f 143/196/143 144/197/144 148/203/148 147/202/147
f 144/197/144 80/198/80 86/204/86 148/203/148
f 131/200/131 145/199/145 149/205/149 136/206/136
f 145/199/145 146/201/146 150/207/150 149/205/149
f 146/201/146 147/202/147 151/208/151 150/207/150
f 147/202/147 148/203/148 152/209/152 151/208/151
f 148/203/148 86/204/86 92/210/92 152/209/152
f 136/206/136 149/205/149 62/211/62 68/212/68
f 149/205/149 150/207/150 56/213/56 62/211/62
f 150/207/150 151/208/151 50/214/50 56/213/56
f 151/208/151 152/209/152 40/215/40 50/214/50
f 152/209/152 92/210/92 37/216/37 40/215/40
