# Blender 5.1.2
# www.blender.org
mtllib asteroids_ship.mtl
o Cube
v -0.012500 0.000000 1.712500
v 0.987500 0.000000 -0.737500
v -0.012500 1.000000 -0.237500
v -1.012500 0.000000 -0.737500
vn 0.7453 0.5932 0.3042
vn -0.0000 -1.0000 -0.0000
vn -0.7453 0.5932 0.3042
vn -0.0000 0.4472 -0.8944
vt 0.625000 0.000000
vt 1.000000 0.000000
vt 1.000000 0.500000
vt 0.281250 0.500000
vt 0.000000 0.000000
vt 0.562500 0.000000
vt 0.625000 1.000000
vt 0.625000 0.500000
vt 0.000000 0.750000
vt 0.562500 0.750000
vt 0.281250 1.000000
s 0
usemtl 
f 2/1/1 3/2/1 1/3/1
f 1/4/2 4/5/2 2/6/2
f 1/7/3 3/8/3 4/3/3
f 2/9/4 4/10/4 3/11/4
