# Blender 5.1.2
# www.blender.org
mtllib asteroids_ship.mtl
o Cone
v 0.000000 -2.000000 -1.500000
v -2.000000 -0.000000 -1.500000
v 0.000000 2.000000 -1.500000
v 2.000000 -0.000000 -1.500000
v 0.000000 0.000000 2.000000
vn -0.6556 -0.6556 0.3746
vn -0.6556 0.6556 0.3746
vn -0.0000 -0.0000 -1.0000
vn 0.6556 0.6556 0.3746
vn 0.6556 -0.6556 0.3746
vt 0.584440 0.584027
vt 0.292530 0.292117
vt 0.584440 0.000206
vt 0.824232 0.997264
vt 0.411409 0.997264
vt 0.411409 0.584440
vt 0.000206 0.584440
vt 0.410996 0.584440
vt 0.410996 0.999794
vt 0.000206 0.999794
vt 0.000206 0.000206
vt 0.292117 0.292117
vt 0.000206 0.584027
vt 0.876763 0.584027
vt 0.584853 0.292117
vt 0.876763 0.000206
s 0
usemtl Material
f 1/1/1 5/2/1 2/3/1
f 2/4/2 5/5/2 3/6/2
f 1/7/3 2/8/3 3/9/3 4/10/3
f 3/11/4 5/12/4 4/13/4
f 4/14/5 5/15/5 1/16/5
